<?xml version="1.0" standalone="no"?>
<!DOCTYPE svg PUBLIC "-//W3C//DTD SVG 20010904//EN"
 "http://www.w3.org/TR/2001/REC-SVG-20010904/DTD/svg10.dtd">
<svg version="1.0" xmlns="http://www.w3.org/2000/svg"
 width="500.000000pt" height="500.000000pt" viewBox="0 0 500.000000 500.000000"
 preserveAspectRatio="xMidYMid meet">

<g transform="translate(0.000000,500.000000) scale(0.100000,-0.100000)"
fill="#000000" stroke="none">
<path d="M2460 3714 c-27 -11 -164 -71 -210 -92 -25 -12 -144 -64 -265 -117
-222 -97 -252 -115 -286 -170 -12 -18 -27 -30 -41 -30 -23 0 -23 0 -26 -182
-2 -177 -2 -183 18 -183 19 0 20 8 23 168 l3 167 2 -167 c2 -142 4 -168 17
-168 13 0 15 24 15 160 0 138 3 166 19 198 30 59 32 60 214 141 94 42 143 64
182 81 272 122 342 150 372 150 19 0 67 -14 106 -31 128 -56 320 -141 395
-175 41 -19 76 -34 79 -34 3 0 39 -17 81 -37 60 -30 81 -47 104 -82 28 -45 28
-46 28 -209 0 -127 3 -163 13 -159 9 3 11 35 9 123 -2 65 1 139 6 164 8 35 10
9 11 -122 1 -161 2 -168 21 -168 19 0 20 7 20 180 0 137 -3 180 -12 181 -7 1
-18 2 -25 3 -6 0 -22 17 -35 36 -13 19 -41 46 -63 61 -62 40 -684 311 -724
315 -20 2 -43 1 -51 -2z"/>
<path d="M2445 3626 c-22 -7 -56 -20 -75 -29 -19 -9 -151 -68 -294 -131 -142
-64 -268 -123 -279 -133 -46 -42 -57 -88 -55 -248 l2 -150 6 155 c6 161 12
190 51 227 26 23 115 70 195 102 27 10 74 30 104 44 260 121 352 157 400 157
41 0 95 -21 342 -131 161 -71 307 -139 325 -150 65 -41 77 -76 84 -249 l6
-155 -1 160 c-1 152 -2 162 -25 196 -14 20 -39 46 -55 57 -47 31 -616 280
-656 286 -19 3 -53 -1 -75 -8z"/>
<path d="M2256 3368 c-3 -13 -6 -33 -6 -45 0 -16 -6 -23 -20 -23 -16 0 -20 -7
-20 -35 0 -23 -5 -35 -14 -35 -8 0 -16 -15 -19 -37 -4 -21 -15 -83 -26 -138
-11 -55 -18 -101 -16 -103 2 -2 166 -3 365 -3 199 0 363 1 365 3 2 2 -9 65
-23 141 -17 94 -30 137 -39 137 -8 0 -13 12 -13 31 0 22 -6 32 -19 36 -13 3
-20 17 -24 45 -3 22 -7 42 -10 44 -9 9 -170 -26 -201 -44 l-34 -20 -49 23
c-26 13 -73 27 -103 30 -30 4 -62 9 -71 11 -11 3 -19 -3 -23 -18z m116 -9 c29
-6 65 -18 81 -25 l27 -15 0 -139 0 -139 -35 20 c-25 15 -60 23 -121 27 l-85 5
7 66 c7 74 12 87 26 73 6 -6 6 -17 1 -28 -7 -14 -5 -23 8 -36 20 -19 29 -14
29 18 0 13 8 28 18 33 9 6 11 11 5 11 -8 0 -13 14 -13 38 0 29 3 34 11 22 8
-11 9 -9 3 10 -12 44 -50 56 -40 13 5 -22 4 -25 -5 -13 -9 12 -10 11 -6 -7 3
-13 -1 -24 -9 -27 -16 -6 -18 20 -8 73 7 36 20 38 106 20z m362 -21 c6 -39 26
-223 26 -236 0 -5 -37 -12 -83 -14 -57 -4 -96 -12 -125 -27 l-42 -21 0 135 c0
133 0 135 26 151 29 19 113 42 161 43 29 1 33 -2 37 -31z m-237 -250 c-1 -40
-3 -8 -3 72 0 80 2 112 3 73 2 -40 2 -106 0 -145z m-253 160 c-2 -24 -8 -77
-12 -119 l-8 -76 91 -5 c142 -8 143 -24 2 -19 -67 1 -123 4 -123 5 -1 1 33
242 35 254 1 1 5 2 11 2 5 0 7 -18 4 -42z m531 10 c6 -29 34 -223 32 -224 -1
-1 -59 -4 -129 -5 -82 -3 -121 -1 -110 5 9 5 58 10 109 10 l93 1 -1 40 c0 22
-4 75 -7 118 -4 42 -4 77 0 77 4 0 10 -10 13 -22z m-584 -149 c-20 -94 -26
-89 102 -91 104 -1 107 -2 47 -8 -36 -4 -91 -8 -124 -9 l-58 -1 5 28 c2 15 11
63 18 107 9 50 15 70 17 52 2 -15 -1 -51 -7 -78z m633 -7 c9 -50 16 -94 16
-97 0 -8 -150 -4 -200 4 -36 7 -22 9 69 10 l114 1 -7 38 c-11 69 -19 147 -13
142 3 -3 12 -47 21 -98z m-426 -37 c28 -9 54 -20 57 -25 3 -5 -10 -3 -29 5
-21 9 -67 15 -111 15 -43 0 -75 4 -75 10 0 15 100 12 158 -5z m362 6 c0 -5
-39 -11 -87 -13 -49 -3 -97 -8 -108 -13 -12 -5 -17 -5 -12 1 23 25 207 47 207
25z m-324 -81 c17 0 22 -4 18 -15 -5 -12 -32 -15 -155 -15 -136 0 -149 2 -148
18 0 10 3 12 6 5 3 -10 40 -12 141 -11 l137 2 -130 6 -130 5 90 6 c50 3 103 4
119 2 16 -2 39 -3 52 -3z m306 -7 c-40 -2 -103 -2 -140 0 -37 2 -4 3 73 3 77
0 107 -2 67 -3z m108 -13 c0 -5 -8 -10 -17 -10 -15 0 -16 2 -3 10 19 12 20 12
20 0z m-162 -7 c-27 -2 -69 -2 -95 0 -27 2 -5 3 47 3 52 0 74 -1 48 -3z"/>
<path d="M2601 3314 c-25 -8 -50 -19 -55 -25 -8 -9 -8 -10 1 -5 7 4 45 15 85
25 43 12 61 19 43 19 -16 0 -50 -6 -74 -14z"/>
<path d="M2660 3287 c0 -7 -12 -18 -27 -24 -25 -10 -25 -11 -7 -12 18 -1 43
-29 32 -35 -2 -1 -14 -8 -28 -14 -24 -12 -24 -12 7 -8 25 4 35 1 43 -14 19
-36 37 -24 36 25 0 31 -5 45 -14 45 -7 0 -10 5 -7 10 3 6 -1 10 -9 10 -22 0
-20 17 2 23 13 4 11 5 -5 6 -13 0 -23 -5 -23 -12z"/>
<path d="M2571 3274 c-19 -8 -31 -17 -28 -20 3 -3 12 -2 19 2 7 5 29 14 48 20
22 8 27 12 15 13 -11 0 -35 -6 -54 -15z"/>
<path d="M2554 3235 c-17 -13 -16 -14 14 -4 33 11 41 19 19 19 -7 0 -22 -7
-33 -15z"/>
<path d="M2575 3215 l-30 -14 30 6 c17 3 39 10 50 14 l20 8 -20 0 c-11 0 -33
-6 -50 -14z"/>
<path d="M2560 3180 c-13 -9 -13 -10 0 -10 8 0 22 5 30 10 13 9 13 10 0 10 -8
0 -22 -5 -30 -10z"/>
<path d="M1911 3216 c-7 -8 -11 -34 -9 -58 3 -38 6 -43 28 -43 23 0 25 4 28
49 2 32 -1 52 -10 57 -18 12 -24 11 -37 -5z m29 -46 c0 -22 -4 -40 -10 -40 -5
0 -10 18 -10 40 0 22 5 40 10 40 6 0 10 -18 10 -40z"/>
<path d="M1977 3223 c-2 -5 1 -32 6 -61 9 -54 29 -67 35 -24 5 30 22 28 22 -3
0 -40 27 -30 34 13 9 55 7 84 -4 77 -5 -3 -10 -21 -11 -38 l-1 -32 -10 33
c-13 39 -21 40 -35 5 l-11 -28 -1 27 c-1 26 -16 46 -24 31z"/>
<path d="M2978 3219 c-12 -6 -18 -22 -18 -44 0 -48 9 -65 35 -65 25 0 35 17
35 60 0 22 -22 62 -33 60 -1 0 -10 -5 -19 -11z m30 -55 c-5 -42 -28 -43 -28
-1 0 18 3 37 7 41 12 12 25 -11 21 -40z"/>
<path d="M1840 3165 c0 -52 1 -55 25 -55 14 0 25 5 25 10 0 6 -7 10 -15 10
-11 0 -15 12 -15 45 0 25 -4 45 -10 45 -5 0 -10 -25 -10 -55z"/>
<path d="M2890 3165 c0 -56 0 -56 28 -53 25 3 27 6 27 53 0 47 -2 50 -27 53
-28 3 -28 3 -28 -53z m40 24 c0 -5 -4 -9 -10 -9 -5 0 -10 7 -10 16 0 8 5 12
10 9 6 -3 10 -10 10 -16z m0 -43 c0 -8 -4 -18 -10 -21 -5 -3 -10 3 -10 14 0
12 5 21 10 21 6 0 10 -6 10 -14z"/>
<path d="M3044 3207 c-3 -8 -4 -32 -2 -53 3 -34 6 -39 28 -39 23 0 25 3 25 50
0 44 -3 50 -23 53 -13 2 -24 -3 -28 -11z m36 -37 c0 -22 -4 -40 -10 -40 -5 0
-10 18 -10 40 0 22 5 40 10 40 6 0 10 -18 10 -40z"/>
<path d="M3120 3165 c0 -30 5 -55 10 -55 6 0 10 10 11 23 l0 22 11 -22 c6 -13
15 -23 20 -23 10 0 10 1 -3 38 -7 22 -7 36 1 51 13 26 -4 29 -19 4 -10 -17
-10 -17 -11 0 0 9 -4 17 -10 17 -5 0 -10 -25 -10 -55z"/>
<path d="M1493 2904 c1 -1 184 -6 407 -10 420 -9 934 -8 1365 4 148 4 -162 7
-762 7 -556 0 -1011 -1 -1010 -1z"/>
<path d="M1490 2870 c0 -6 107 -10 302 -10 166 0 299 2 297 4 -11 9 -599 15
-599 6z"/>
<path d="M3120 2870 l-205 -6 298 -2 c193 -1 297 2 297 8 0 10 -15 10 -390 0z"/>
<path d="M2312 2853 c108 -2 288 -2 400 0 112 1 23 2 -197 2 -220 0 -311 -1
-203 -2z"/>
<path d="M1480 2725 c0 -13 14 -88 30 -165 17 -77 30 -143 30 -145 0 -3 15 -5
34 -5 36 0 34 -5 67 138 21 90 21 90 34 37 7 -28 18 -78 25 -113 l13 -63 35 3
36 3 33 150 c40 188 40 185 4 185 -28 0 -30 -4 -40 -52 -6 -29 -17 -82 -24
-118 l-13 -65 -17 80 c-33 151 -35 157 -64 153 -29 -3 -39 -27 -63 -156 -7
-40 -16 -69 -20 -65 -4 4 -12 46 -19 93 -19 134 -18 130 -51 130 -25 0 -30 -4
-30 -25z"/>
<path d="M1927 2743 c-4 -3 -7 -80 -7 -170 l0 -163 95 0 c95 0 95 0 95 25 0
24 -3 25 -61 25 l-60 0 3 48 3 47 43 3 c37 3 42 6 42 28 0 22 -4 24 -45 24
l-45 0 0 40 0 39 58 3 c54 3 57 4 60 31 l3 27 -89 0 c-49 0 -92 -3 -95 -7z"/>
<path d="M2230 2743 c-32 -12 -50 -37 -50 -70 0 -47 12 -65 70 -108 60 -44 77
-70 59 -91 -19 -23 -63 -14 -67 14 -3 18 -10 22 -38 22 -37 0 -39 -5 -24 -46
16 -40 39 -53 96 -54 131 0 150 114 31 193 -59 39 -74 62 -56 83 18 22 48 16
61 -11 11 -25 51 -35 63 -15 11 18 -7 57 -35 73 -27 17 -80 21 -110 10z"/>
<path d="M2440 2720 c0 -28 3 -30 35 -30 l35 0 0 -140 0 -140 35 0 34 0 3 143
3 142 33 3 c26 3 32 7 32 28 0 24 0 24 -105 24 l-105 0 0 -30z"/>
<path d="M2727 2743 c-4 -3 -7 -80 -7 -170 l0 -163 95 0 c95 0 95 0 95 25 0
24 -3 25 -60 25 l-60 0 0 50 0 50 46 0 c41 0 45 2 42 23 -2 18 -10 23 -45 25
-43 3 -43 3 -43 43 l0 39 55 0 c54 0 55 0 55 30 l0 30 -83 0 c-46 0 -87 -3
-90 -7z"/>
<path d="M2980 2580 l0 -170 35 0 35 0 0 65 c0 58 2 65 19 65 12 0 22 -9 26
-22 4 -13 14 -42 22 -65 14 -39 19 -43 49 -43 19 0 34 2 34 4 0 2 -11 34 -25
71 l-25 66 21 18 c26 21 36 95 17 131 -17 32 -66 49 -145 49 l-63 1 0 -170z
m142 97 c12 -18 10 -61 -4 -75 -7 -7 -25 -12 -40 -12 -27 0 -28 1 -28 56 l0
57 32 -7 c18 -3 36 -12 40 -19z"/>
<path d="M3280 2580 l0 -170 30 0 29 0 3 98 3 97 50 -97 c45 -88 52 -98 77
-98 l28 0 0 171 0 170 -27 -3 -28 -3 -3 -100 -4 -100 -48 103 c-46 96 -51 102
-79 102 l-31 0 0 -170z"/>
<path d="M2370 2327 c-3 -3 -182 -11 -399 -17 -217 -7 -415 -16 -440 -21 -32
-5 -13 -6 64 -3 148 6 676 24 850 28 77 2 212 0 300 -4 88 -4 252 -10 365 -14
113 -3 250 -8 305 -11 76 -3 89 -2 55 5 -25 5 -202 14 -395 20 -192 6 -429 14
-525 17 -96 3 -177 3 -180 0z"/>
<path d="M2430 2283 c91 -1 273 -7 405 -12 132 -6 339 -13 460 -15 202 -4 208
-4 70 4 -295 16 -753 30 -925 28 l-175 -2 165 -3z"/>
<path d="M1780 2269 c-135 -5 -256 -10 -270 -13 -35 -5 435 5 605 14 l140 7
-115 0 c-63 0 -225 -4 -360 -8z"/>
<path d="M1630 1850 l0 -370 25 0 c15 0 29 -8 36 -22 13 -26 80 -98 90 -98 4
0 55 -22 114 -50 59 -27 108 -50 110 -50 2 0 45 -20 97 -44 215 -100 350 -158
381 -163 35 -5 105 19 262 92 44 21 103 48 130 60 60 27 160 73 275 127 89 41
132 74 156 121 10 18 22 27 39 27 l25 0 0 370 c0 363 0 370 -20 370 -20 0 -20
-7 -20 -332 0 -182 -2 -329 -4 -327 -11 12 -15 111 -16 372 0 184 -4 287 -10
287 -6 0 -10 -123 -10 -348 0 -341 0 -349 -22 -392 -25 -50 -67 -81 -168 -125
-36 -15 -108 -48 -160 -73 -52 -24 -133 -61 -180 -82 -47 -21 -115 -52 -153
-69 -82 -38 -135 -40 -203 -7 -27 13 -71 34 -99 46 -144 65 -445 204 -482 222
-52 26 -87 62 -102 107 -7 23 -11 148 -11 377 0 295 -2 344 -15 344 -12 0 -14
-47 -13 -330 1 -182 -2 -333 -5 -337 -4 -3 -7 145 -7 330 0 330 0 337 -20 337
-20 0 -20 -7 -20 -370z"/>
<path d="M1742 1895 c-1 -203 2 -344 8 -367 21 -73 52 -96 240 -181 30 -14 85
-39 123 -56 37 -17 96 -44 132 -61 36 -16 94 -43 130 -60 113 -52 146 -46 376
59 453 206 435 197 474 251 l30 42 1 351 0 352 -5 -345 c-5 -303 -8 -349 -23
-377 -22 -40 -67 -74 -138 -106 -30 -13 -84 -38 -120 -55 -36 -16 -85 -39
-110 -50 -25 -11 -85 -39 -135 -62 -220 -103 -235 -103 -429 -11 -70 34 -130
61 -131 61 -2 0 -43 19 -92 41 -48 23 -122 57 -163 76 -79 36 -125 72 -144
113 -7 17 -13 142 -16 370 l-6 345 -2 -330z"/>
<path d="M1900 2085 c0 -78 3 -95 15 -95 10 0 15 10 15 33 0 26 6 35 33 47 25
12 33 22 35 48 4 44 -12 62 -59 62 l-39 0 0 -95z m65 35 c0 -16 -6 -26 -17
-28 -14 -3 -18 3 -18 28 0 25 4 31 18 28 11 -2 17 -12 17 -28z"/>
<path d="M2030 2095 c0 -80 1 -85 26 -102 24 -15 29 -15 53 -2 25 14 26 19 29
102 2 69 0 87 -11 87 -16 0 -27 -48 -27 -116 0 -45 -5 -55 -26 -47 -10 4 -14
26 -14 84 0 64 -3 79 -15 79 -12 0 -15 -16 -15 -85z"/>
<path d="M2179 2178 c0 -2 -1 -45 -2 -96 l-2 -92 41 0 c22 0 45 5 52 12 15 15
16 60 1 75 -8 8 -8 17 1 33 18 34 -10 70 -55 70 -19 0 -35 -1 -36 -2z m61 -53
c0 -16 -6 -25 -15 -25 -9 0 -15 9 -15 25 0 16 6 25 15 25 9 0 15 -9 15 -25z
m4 -67 c7 -12 6 -21 -3 -32 -21 -25 -31 -19 -31 20 0 37 14 42 34 12z"/>
<path d="M2310 2085 l0 -95 45 0 c33 0 45 4 45 15 0 10 -10 15 -30 15 l-30 0
0 80 c0 64 -3 80 -15 80 -12 0 -15 -17 -15 -95z"/>
<path d="M2430 2085 c0 -78 3 -95 15 -95 12 0 15 17 15 95 0 78 -3 95 -15 95
-12 0 -15 -17 -15 -95z"/>
<path d="M2502 2160 c-18 -30 -15 -38 28 -81 22 -22 40 -44 40 -48 0 -16 -31
-21 -36 -6 -7 17 -44 21 -44 5 0 -15 38 -50 55 -50 8 0 24 9 36 21 25 25 18
52 -23 96 -20 21 -28 37 -24 49 6 16 8 16 26 -1 25 -22 40 -16 29 13 -11 30
-68 31 -87 2z"/>
<path d="M2630 2085 c0 -78 3 -95 15 -95 11 0 15 11 15 40 0 33 3 40 20 40 14
0 20 -7 22 -22 0 -13 2 -29 2 -37 1 -8 6 -16 13 -18 17 -6 27 84 17 155 -7 44
-20 40 -28 -8 -5 -31 -11 -40 -26 -40 -17 0 -20 7 -20 40 0 29 -4 40 -15 40
-12 0 -15 -17 -15 -95z"/>
<path d="M2770 2085 c0 -78 3 -95 15 -95 12 0 15 17 15 95 0 78 -3 95 -15 95
-12 0 -15 -17 -15 -95z"/>
<path d="M2840 2085 c0 -78 3 -95 15 -95 11 0 15 12 15 45 0 25 4 45 9 45 4 0
16 -20 25 -45 10 -25 24 -45 32 -45 11 0 14 20 14 95 0 78 -3 95 -15 95 -11 0
-15 -13 -16 -52 l0 -53 -24 53 c-14 30 -30 52 -39 52 -13 0 -16 -16 -16 -95z"/>
<path d="M3002 2168 c-7 -7 -12 -42 -12 -85 0 -65 2 -74 24 -88 44 -29 95 14
84 72 -4 24 -58 32 -58 9 0 -9 7 -16 15 -16 17 0 19 -18 6 -39 -5 -8 -16 -11
-25 -8 -14 6 -16 19 -14 74 2 44 7 68 16 71 7 2 16 -5 19 -17 7 -26 33 -28 33
-3 0 25 -20 42 -50 42 -14 0 -31 -5 -38 -12z"/>
<path d="M2490 1793 l-1 -38 -15 28 c-8 15 -20 27 -25 27 -7 0 -4 -11 6 -26
21 -32 14 -41 -17 -20 -12 9 -26 16 -31 16 -16 0 5 -21 31 -32 27 -12 27 -12
-13 -18 -38 -7 -39 -7 -7 -9 39 -1 41 -13 5 -31 -18 -8 -23 -14 -15 -17 8 -3
19 0 25 6 6 6 17 11 24 11 11 0 10 -7 -2 -32 l-16 -33 25 30 26 30 0 -32 c0
-18 5 -33 10 -33 6 0 10 15 10 33 l0 32 25 -30 c26 -32 35 -22 10 11 -22 29
-18 38 11 20 14 -10 31 -15 37 -13 7 2 -1 11 -18 20 l-30 16 27 1 c40 0 46 20
6 21 -33 0 -33 0 -10 16 31 22 28 39 -4 18 -14 -9 -28 -14 -31 -12 -2 3 3 17
12 31 21 32 10 34 -16 4 l-18 -23 -1 33 c0 45 -20 40 -20 -5z"/>
<path d="M2015 1780 c-4 -7 53 -10 164 -10 107 0 171 4 171 10 0 6 -61 10
-164 10 -99 0 -167 -4 -171 -10z"/>
<path d="M2650 1780 c0 -6 63 -10 170 -10 107 0 170 4 170 10 0 6 -63 10 -170
10 -107 0 -170 -4 -170 -10z"/>
<path d="M1772 1758 c4 -13 167 -97 498 -258 158 -77 180 -85 230 -84 60 1 55
-1 450 192 113 55 207 98 209 96 2 -1 -2 -55 -8 -120 -7 -64 -9 -119 -7 -122
10 -9 39 23 57 63 14 30 19 65 19 143 0 56 -2 102 -4 102 -7 0 -158 -72 -391
-185 -121 -59 -237 -114 -258 -122 -66 -27 -115 -13 -317 85 -320 155 -462
222 -472 222 -5 0 -8 -6 -6 -12z"/>
<path d="M2178 1743 c34 -2 88 -2 120 0 31 2 3 3 -63 3 -66 0 -92 -1 -57 -3z"/>
<path d="M2708 1743 c34 -2 88 -2 120 0 31 2 3 3 -63 3 -66 0 -92 -1 -57 -3z"/>
<path d="M1779 1727 c-8 -22 -7 -122 1 -157 11 -44 62 -121 73 -110 3 3 0 58
-6 123 -10 114 -11 118 -39 131 -15 8 -28 14 -29 13z"/>
<path d="M2247 1703 c18 -2 50 -2 70 0 21 2 7 4 -32 4 -38 0 -55 -2 -38 -4z"/>
<path d="M2677 1703 c18 -2 50 -2 70 0 21 2 7 4 -32 4 -38 0 -55 -2 -38 -4z"/>
<path d="M2313 1673 c9 -2 23 -2 30 0 6 3 -1 5 -18 5 -16 0 -22 -2 -12 -5z"/>
<path d="M2653 1673 c9 -2 23 -2 30 0 6 3 -1 5 -18 5 -16 0 -22 -2 -12 -5z"/>
<path d="M3112 1668 c-9 -11 -33 -227 -26 -236 1 -2 12 1 23 8 19 10 21 19 21
125 0 63 -2 115 -4 115 -2 0 -8 -6 -14 -12z"/>
<path d="M1868 1558 c3 -107 9 -127 36 -128 8 0 0 172 -11 218 -3 12 -10 22
-17 22 -8 0 -10 -33 -8 -112z"/>
<path d="M1920 1556 c0 -101 9 -140 34 -149 15 -6 16 3 10 76 -9 117 -18 160
-32 165 -9 3 -12 -20 -12 -92z"/>
<path d="M3051 1632 c-6 -12 -11 -45 -12 -74 0 -29 -4 -77 -8 -105 -8 -56 -5
-61 21 -40 13 9 17 35 20 119 3 110 -2 135 -21 100z"/>
<path d="M1980 1506 c0 -64 2 -116 4 -116 2 0 11 -3 20 -6 14 -5 16 4 15 62
-1 97 -12 167 -26 172 -10 3 -13 -24 -13 -112z"/>
<path d="M2995 1611 c-4 -8 -24 -177 -25 -218 0 -23 30 -13 40 13 13 33 13
214 1 214 -6 0 -12 -4 -16 -9z"/>
<path d="M2040 1476 c0 -107 1 -114 21 -119 21 -6 21 -4 15 96 -8 112 -13 137
-27 137 -5 0 -9 -50 -9 -114z"/>
<path d="M2935 1580 c-4 -6 -9 -60 -12 -121 l-6 -111 21 11 c21 11 22 19 22
121 0 100 -7 129 -25 100z"/>
<path d="M2098 1450 c3 -99 5 -111 24 -121 20 -11 21 -10 14 50 -3 34 -9 88
-12 121 -4 34 -11 60 -18 60 -8 0 -10 -34 -8 -110z"/>
<path d="M2876 1537 c-3 -12 -8 -67 -12 -121 l-7 -98 21 11 c21 11 22 19 22
121 0 103 -10 140 -24 87z"/>
<path d="M2150 1431 c0 -85 3 -111 15 -121 9 -7 18 -10 21 -7 4 3 3 55 -1 116
-5 79 -11 111 -21 115 -11 4 -14 -14 -14 -103z"/>
<path d="M2817 1483 c-20 -151 -20 -183 -4 -183 23 0 25 5 31 123 5 88 4 107
-7 107 -10 0 -16 -16 -20 -47z"/>
<path d="M2210 1402 c0 -101 2 -112 20 -122 19 -10 20 -8 14 97 -4 71 -11 113
-20 123 -12 12 -14 -2 -14 -98z"/>
<path d="M2774 1502 c-12 -8 -34 -221 -23 -227 3 -3 14 1 23 8 14 10 16 28 14
119 -2 76 -6 105 -14 100z"/>
<path d="M2260 1371 c0 -100 2 -109 20 -114 19 -5 20 0 20 63 0 98 -10 160
-26 160 -11 0 -14 -24 -14 -109z"/>
<path d="M2706 1468 c-3 -7 -7 -62 -11 -121 -6 -105 -5 -107 14 -95 16 10 21
27 25 92 4 45 4 90 2 101 -2 11 -5 23 -5 28 -1 12 -21 8 -25 -5z"/>
<path d="M2661 1451 c-9 -6 -15 -42 -19 -121 l-5 -112 22 11 c19 11 21 19 21
121 0 61 -1 110 -2 110 -2 0 -9 -4 -17 -9z"/>
<path d="M2319 1383 c-1 -38 -2 -83 -3 -102 -1 -25 5 -37 23 -49 l24 -16 -8
109 c-4 61 -9 113 -12 118 -14 22 -23 -1 -24 -60z"/>
<path d="M2370 1319 c0 -60 2 -109 4 -109 2 0 11 -3 20 -6 14 -5 16 8 16 104
0 101 -2 110 -20 115 -19 5 -20 0 -20 -104z"/>
<path d="M2603 1422 c-12 -7 -21 -207 -11 -218 3 -2 13 -2 22 2 13 5 16 23 16
115 0 107 -3 117 -27 101z"/>
<path d="M2420 1296 c0 -115 1 -116 66 -116 l35 0 -3 107 -3 107 -47 3 -48 4
0 -105z m57 -53 c-2 -21 -4 -4 -4 37 0 41 2 58 4 38 2 -21 2 -55 0 -75z"/>
<path d="M2530 1289 c0 -100 2 -110 18 -107 15 3 17 18 20 111 3 102 2 107
-18 107 -19 0 -20 -6 -20 -111z"/>
</g>
</svg>
