<?xml version="1.0" encoding="UTF-8"?>
<svg version="1.1" xmlns="http://www.w3.org/2000/svg" width="500" height="500">
<path d="M0 0 C1.2380014 3.57644848 0.74926071 6.33694766 0 10 C0.61488281 9.71125 1.22976563 9.4225 1.86328125 9.125 C2.67152344 8.75375 3.47976563 8.3825 4.3125 8 C5.51326172 7.443125 5.51326172 7.443125 6.73828125 6.875 C9 6 9 6 12 6 C12.495 11.445 12.495 11.445 13 17 C15.31 16.34 17.62 15.68 20 15 C20 51.63 20 88.26 20 126 C12.23369978 129.88315011 5.71804691 132.84266947 -3 131 C-9.53501214 128.42343139 -16.76747409 124.74650916 -22 120 C-22 119.01 -22 118.02 -22 117 C-20.03852126 115.61061923 -18.03833424 114.2739589 -16 113 C-16 112.67 -16 112.34 -16 112 C-18.31 111.34 -20.62 110.68 -23 110 C-23 109.67 -23 109.34 -23 109 C-21.67935547 108.88785156 -21.67935547 108.88785156 -20.33203125 108.7734375 C-13.81845299 108.27075035 -13.81845299 108.27075035 -8.09375 105.53125 C-6.65203126 103.72219563 -6.65203126 103.72219563 -5 101 C-4.34 101 -3.68 101 -3 101 C-2.75507813 100.45859375 -2.51015625 99.9171875 -2.2578125 99.359375 C-0.70646212 96.44938857 1.16714304 93.9025804 3.125 91.25 C4.21167969 89.77273437 4.21167969 89.77273437 5.3203125 88.265625 C5.87460937 87.51796875 6.42890625 86.7703125 7 86 C6.01 86 5.02 86 4 86 C5.25125384 82.24623848 6.5652404 81.75926711 10 80 C10.66 80 11.32 80 12 80 C12.185625 78.948125 12.185625 78.948125 12.375 77.875 C13 75 13 75 14 72.125 C15.93155861 66.08887936 16.11000357 60.27020374 16 54 C15.401875 54.33 14.80375 54.66 14.1875 55 C12 56 12 56 9 56 C9 56.66 9 57.32 9 58 C7.7536826 58.8496273 6.47679721 59.65462944 5.1875 60.4375 C-0.09320609 64.18539937 -0.94994526 68.85280456 -2 75 C-3.70840281 73.36587557 -4.93453047 72.13093906 -6 70 C-6.66 70.99 -7.32 71.98 -8 73 C-8.66 73 -9.32 73 -10 73 C-10.33 76.3 -10.66 79.6 -11 83 C-11.66 83 -12.32 83 -13 83 C-13 81.35 -13 79.7 -13 78 C-20.04099712 83.32368075 -25.83164121 89.02156484 -27.3125 98 C-27.46138672 99.3921875 -27.46138672 99.3921875 -27.61328125 100.8125 C-27.80470703 101.8953125 -27.80470703 101.8953125 -28 103 C-28.99 103.495 -28.99 103.495 -30 104 C-30.66 102.35 -31.32 100.7 -32 99 C-34.475 103.95 -34.475 103.95 -37 109 C-40.54360725 107.0313293 -43.42604969 105.15378091 -46 102 C-46.48101807 99.16522217 -46.48101807 99.16522217 -46.45410156 95.85449219 C-46.45379944 94.61350769 -46.45349731 93.37252319 -46.45318604 92.09393311 C-46.43276115 90.74490718 -46.41189719 89.39588783 -46.390625 88.046875 C-46.38316102 86.66254494 -46.37746883 85.27820428 -46.37347412 83.89385986 C-46.35822974 80.25710683 -46.31895952 76.62099675 -46.2746582 72.98449707 C-46.23367892 69.27100318 -46.21545751 65.55740501 -46.1953125 61.84375 C-46.15246301 54.56220746 -46.08422754 47.28119395 -46 40 C-43.03 38.68 -40.06 37.36 -37 36 C-37.33 35.34 -37.66 34.68 -38 34 C-37.67 33.01 -37.34 32.02 -37 31 C-38.175625 32.2375 -38.175625 32.2375 -39.375 33.5 C-42 36 -42 36 -44 36 C-43.41056045 32.75165144 -42.43006183 31.01632173 -40.19140625 28.609375 C-39.61422852 27.98603271 -39.03705078 27.36269043 -38.44238281 26.72045898 C-37.82202148 26.07020752 -37.20166016 25.41995605 -36.5625 24.75 C-35.92795898 24.07976807 -35.29341797 23.40953613 -34.63964844 22.71899414 C-26.67455229 14.4268823 -12.50304082 0 0 0 Z M-11 14 C-18.54343358 16.89386938 -31.23444183 22.46888365 -35 30 C-30.23019512 28.35106355 -26.22413749 25.76298642 -22 23.0625 C-20.60439907 22.1780186 -19.20857098 21.29389552 -17.8125 20.41015625 C-17.15894531 19.99523926 -16.50539063 19.58032227 -15.83203125 19.15283203 C-13.57561026 17.73294665 -11.29427614 16.35774545 -9 15 C-9.66 14.67 -10.32 14.34 -11 14 Z M4 19 C4.33 19.66 4.66 20.32 5 21 C5.99 20.34 6.98 19.68 8 19 C6.68 19 5.36 19 4 19 Z M-4.3828125 22.08203125 C-5.46820313 22.51966797 -6.55359375 22.95730469 -7.671875 23.40820312 C-9.38117188 24.10333008 -9.38117188 24.10333008 -11.125 24.8125 C-18.05696298 27.61810396 -24.98142144 30.41736901 -32 33 C-31.34 33.66 -30.68 34.32 -30 35 C-28.79085938 34.48050781 -27.58171875 33.96101563 -26.3359375 33.42578125 C-16.65406977 29.29241807 -6.97098964 25.3833048 3 22 C3 21.34 3 20.68 3 20 C0.21407043 20 -1.800148 21.03465717 -4.3828125 22.08203125 Z " fill="#4E6F78" transform="translate(298,142)"/>
<path d="M0 0 C5.99848358 5.63493912 10.82599691 12.02014539 15.0625 19.0625 C16.41973951 21.29323171 16.41973951 21.29323171 18 23 C21.2587435 23.7555432 21.2587435 23.7555432 24 23 C24.495 24.485 24.495 24.485 25 26 C25.66 26 26.32 26 27 26 C32 31.47619048 32 31.47619048 32 34 C33.485 34.495 33.485 34.495 35 35 C36.7890625 36.70703125 36.7890625 36.70703125 38.625 38.8125 C39.23601562 39.49957031 39.84703125 40.18664062 40.4765625 40.89453125 C42.72635762 44.00386347 43.1624762 45.97872105 42.5625 49.75 C42.2840625 50.86375 42.2840625 50.86375 42 52 C42.48210937 51.4946875 42.96421875 50.989375 43.4609375 50.46875 C44.40839844 49.49421875 44.40839844 49.49421875 45.375 48.5 C46.00148438 47.8503125 46.62796875 47.200625 47.2734375 46.53125 C49 45 49 45 51 45 C51.34792603 44.16202881 51.34792603 44.16202881 51.70288086 43.30712891 C53.3382241 40.39841564 55.37103929 38.42230841 57.75390625 36.0859375 C58.69041016 35.16039062 59.62691406 34.23484375 60.59179688 33.28125 C61.58168773 32.31214898 62.57192614 31.34340287 63.5625 30.375 C65.50450908 28.46934629 67.44234188 26.55964369 69.37890625 24.6484375 C70.67163452 23.38265869 70.67163452 23.38265869 71.99047852 22.09130859 C74.04204037 20.16362599 74.04204037 20.16362599 75 18 C75.66 18 76.32 18 77 18 C77.36738281 17.17242187 77.36738281 17.17242187 77.7421875 16.328125 C79.25738114 13.52360509 81.11084126 11.21896877 83.125 8.75 C83.84945312 7.85796875 84.57390625 6.9659375 85.3203125 6.046875 C85.87460937 5.37140625 86.42890625 4.6959375 87 4 C87.99 4.495 87.99 4.495 89 5 C87.625 7.5 87.625 7.5 86 10 C85.34 10 84.68 10 84 10 C83.79375 10.66 83.5875 11.32 83.375 12 C81.50875748 16.07180186 79.02438473 19.68796998 76 23 C75.34 23 74.68 23 74 23 C73.64615234 23.83144531 73.64615234 23.83144531 73.28515625 24.6796875 C71.6873545 27.56447242 69.68148991 29.71172032 67.4375 32.125 C64.36280814 35.31507509 64.36280814 35.31507509 62 39 C61.34 39 60.68 39 60 39 C59.599021 39.88993652 59.599021 39.88993652 59.18994141 40.79785156 C57.98415007 43.02933245 56.7641905 44.4664799 54.9609375 46.234375 C54.38085938 46.80800781 53.80078125 47.38164062 53.203125 47.97265625 C52.59984375 48.55917969 51.9965625 49.14570313 51.375 49.75 C50.76398438 50.35199219 50.15296875 50.95398438 49.5234375 51.57421875 C48.02011376 53.05405305 46.51065144 54.52764676 45 56 C45.64831787 55.71165283 46.29663574 55.42330566 46.96459961 55.1262207 C51.35673439 53.50855828 54.55065528 52.56458524 59.12548828 53.93896484 C62.38112765 55.54315612 65.46373718 57.29838394 68.5625 59.1875 C69.64080078 59.80431641 70.71910156 60.42113281 71.83007812 61.05664062 C79.47875977 65.47875977 79.47875977 65.47875977 82 68 C81.38125 68.28875 80.7625 68.5775 80.125 68.875 C77.86674235 69.93720042 77.86674235 69.93720042 76 72 C74 72.66666667 72 73.33333333 70 74 C67.91883751 75.02287759 65.87204459 76.09282009 63.83203125 77.1953125 C62 78 62 78 59 78 C58.67 78.66 58.34 79.32 58 80 C54.88284589 81.74388253 51.5753158 83.11312288 48.3125 84.5625 C47.41337891 84.97435547 46.51425781 85.38621094 45.58789062 85.81054688 C34.78511628 90.65316986 34.78511628 90.65316986 29.91796875 89.51171875 C25.11111111 87.22222222 25.11111111 87.22222222 24 85 C23.01 84.67 22.02 84.34 21 84 C20.67 83.67 20.34 83.34 20 83 C18.9171875 82.7834375 18.9171875 82.7834375 17.8125 82.5625 C14.76651591 81.95330318 11.93025146 81.02218074 9 80 C9 79.34 9 78.68 9 78 C8.2884375 77.8868042 7.576875 77.7736084 6.84375 77.65698242 C3.78297447 76.94986129 1.31981509 75.86841224 -1.5 74.48828125 C-3.07019897 73.72596191 -3.07019897 73.72596191 -4.67211914 72.94824219 C-5.77031982 72.40844727 -6.86852051 71.86865234 -8 71.3125 C-10.24835437 70.21934521 -12.49704926 69.12689049 -14.74609375 68.03515625 C-15.82358887 67.51066895 -16.90108398 66.98618164 -18.01123047 66.44580078 C-23.30499934 63.88496928 -28.64817703 61.4367677 -34 59 C-34.29290044 54.68895621 -34.46879375 50.38048713 -34.625 46.0625 C-34.70878906 44.85013672 -34.79257813 43.63777344 -34.87890625 42.38867188 C-35.12248403 33.40065173 -35.12248403 33.40065173 -31.82177734 29.28198242 C-29.125 26.921875 -29.125 26.921875 -26.421875 24.94433594 C-23.83497303 22.86751262 -22.75109113 21.17156153 -21.375 18.1875 C-19.31303418 13.99868132 -17.43406478 12.88442167 -13.1953125 11.16796875 C-9.43116444 9.16533482 -6.77711039 6.00664538 -3.8828125 2.92578125 C-2 1 -2 1 0 0 Z M-4.76953125 7.6796875 C-6.12528798 9.13654273 -7.47947094 10.59486419 -8.83203125 12.0546875 C-11 14 -11 14 -13.56640625 15.0234375 C-18.67900916 17.07504381 -21.29851935 22.77806596 -23.9375 27.375 C-24.288125 28.24125 -24.63875 29.1075 -25 30 C-24.67 30.66 -24.34 31.32 -24 32 C-22.2925002 30.71937515 -20.62626404 29.38232443 -19 28 C-19 27.34 -19 26.68 -19 26 C-18.01 25.67 -17.02 25.34 -16 25 C-16 24.34 -16 23.68 -16 23 C-14.02 22.34 -12.04 21.68 -10 21 C-10.22816406 21.62648437 -10.45632812 22.25296875 -10.69140625 22.8984375 C-11.12259766 24.12433594 -11.12259766 24.12433594 -11.5625 25.375 C-11.85253906 26.18710938 -12.14257812 26.99921875 -12.44140625 27.8359375 C-13.25973028 30.02767749 -13.25973028 30.02767749 -12 32 C-8.7 28.37 -5.4 24.74 -2 21 C-2.66 19.02 -3.32 17.04 -4 15 C-2.625 11.8125 -2.625 11.8125 -1 9 C-1 8.01 -1 7.02 -1 6 C-3.16487247 5.77051505 -3.16487247 5.77051505 -4.76953125 7.6796875 Z M42 57 C41.67 57.66 41.34 58.32 41 59 C41.99 58.67 42.98 58.34 44 58 C43.34 57.67 42.68 57.34 42 57 Z M38 60 C37.01 61.485 37.01 61.485 36 63 C36.99 62.67 37.98 62.34 39 62 C38.67 61.34 38.34 60.68 38 60 Z M35 63 C35 66 35 66 35 66 Z M30.125 67.64453125 C29.42375 68.35996094 28.7225 69.07539063 28 69.8125 C27.29875 70.52019531 26.5975 71.22789062 25.875 71.95703125 C22.77731225 75.32769722 22.77731225 75.32769722 21.875 79.6875 C21.91625 80.450625 21.9575 81.21375 22 82 C26.20602837 76.8233497 30.29927567 71.55108649 34 66 C31.83493092 65.78020292 31.83493092 65.78020292 30.125 67.64453125 Z " fill="#171618" transform="translate(216,209)"/>
<path d="M0 0 C14.01745509 3.90650388 26.18766634 13.41393394 36 24 C36 24.66 36 25.32 36 26 C36.66 26 37.32 26 38 26 C39.5078125 27.96875 39.5078125 27.96875 41.125 30.5 C41.66382813 31.3353125 42.20265625 32.170625 42.7578125 33.03125 C43.16773438 33.6809375 43.57765625 34.330625 44 35 C40.10371956 35 39.45076251 33.83622313 36.6875 31.1875 C33.09435108 27.74484947 30.70796488 26.35398244 26 24 C29.63 26.64 33.26 29.28 37 32 C36.67 33.32 36.34 34.64 36 36 C39.3 37.32 42.6 38.64 46 40 C46.16746324 47.35053495 46.32803893 54.7011755 46.48217773 62.05200195 C46.53561207 64.55367096 46.59094252 67.05530019 46.64819336 69.55688477 C46.73006397 73.14851303 46.80515863 76.74022817 46.87890625 80.33203125 C46.90594131 81.45398392 46.93297638 82.57593658 46.96083069 83.73188782 C46.98092697 84.77274033 47.00102325 85.81359283 47.02172852 86.88598633 C47.04171402 87.80309891 47.06169952 88.72021149 47.08229065 89.66511536 C47 92 47 92 46 95 C43.51525497 93.93510927 42.02208443 93.02436903 40.1875 91 C38.06814488 88.71708057 38.06814488 88.71708057 34.68359375 88.33203125 C29.76998774 86.55521296 28.43381189 84.05915093 25.875 79.6875 C22.49660854 74.06164746 22.49660854 74.06164746 18.1953125 69.14453125 C17.47085938 68.43683594 16.74640625 67.72914063 16 67 C16 66.34 16 65.68 16 65 C10.56044708 68.60214669 6.01003578 71.80180547 2 77 C0.33333333 77.66666667 -1.33333333 78.33333333 -3 79 C-5.02531496 81.25034996 -6.64719678 83.29439355 -8 86 C-8.66 86 -9.32 86 -10 86 C-10.20625 86.7425 -10.4125 87.485 -10.625 88.25 C-12.4212007 91.8424014 -14.52117309 93.08309537 -18 95 C-18.99 95 -19.98 95 -21 95 C-21 68.93 -21 42.86 -21 16 C-16.70600835 14.92650209 -15.80504787 15.20317184 -12 17 C-12.33 13.7 -12.66 10.4 -13 7 C-7.37133625 5.59283406 -5.1406184 7.50528813 0 10 C0 6.7 0 3.4 0 0 Z M9 14 C9.33 14.66 9.66 15.32 10 16 C10.99 15.67 11.98 15.34 13 15 C11.68 14.67 10.36 14.34 9 14 Z M13 16 C15.98232523 19.32643967 18.86370087 21.29152862 23 23 C23.66 22.67 24.32 22.34 25 22 C23.75443908 21.18071114 22.50333365 20.36984814 21.25 19.5625 C20.55390625 19.11003906 19.8578125 18.65757812 19.140625 18.19140625 C17.07042986 17.0391991 15.31303676 16.45323018 13 16 Z M8 24 C8 24.66 8 25.32 8 26 C9.32 25.67 10.64 25.34 12 25 C10.68 24.67 9.36 24.34 8 24 Z M14 27 C15.75244247 28.6483633 15.75244247 28.6483633 18 30 C20.20800528 29.78282648 20.20800528 29.78282648 22 29 C19.09399739 27.74335022 17.20395416 27 14 27 Z M24 31 C25.485 31.99 25.485 31.99 27 33 C27.66 32.67 28.32 32.34 29 32 C27.35 31.67 25.7 31.34 24 31 Z M29 33 C29.66 33.66 30.32 34.32 31 35 C31.99 34.67 32.98 34.34 34 34 C32.35 33.67 30.7 33.34 29 33 Z " fill="#E99E44" transform="translate(202,142)"/>
<path d="M0 0 C1.32 0.33 2.64 0.66 4 1 C4 21.46 4 41.92 4 63 C-3.76630022 66.88315011 -10.28195309 69.84266947 -19 68 C-25.53501214 65.42343139 -32.76747409 61.74650916 -38 57 C-38 56.01 -38 55.02 -38 54 C-36.03852126 52.61061923 -34.03833424 51.2739589 -32 50 C-32 49.67 -32 49.34 -32 49 C-34.31 48.34 -36.62 47.68 -39 47 C-39 46.67 -39 46.34 -39 46 C-38.11957031 45.92523438 -37.23914063 45.85046875 -36.33203125 45.7734375 C-29.81845299 45.27075035 -29.81845299 45.27075035 -24.09375 42.53125 C-22.65203126 40.72219563 -22.65203126 40.72219563 -21 38 C-20.34 38 -19.68 38 -19 38 C-18.75507813 37.45859375 -18.51015625 36.9171875 -18.2578125 36.359375 C-16.70646212 33.44938857 -14.83285696 30.9025804 -12.875 28.25 C-12.15054687 27.26515625 -11.42609375 26.2803125 -10.6796875 25.265625 C-10.12539063 24.51796875 -9.57109375 23.7703125 -9 23 C-9.99 23 -10.98 23 -12 23 C-10.74874616 19.24623848 -9.4347596 18.75926711 -6 17 C-5.34 17 -4.68 17 -4 17 C-3.86722656 16.30519531 -3.73445313 15.61039063 -3.59765625 14.89453125 C-2.95897084 11.80129014 -2.21143636 8.74959602 -1.4375 5.6875 C-1.16808594 4.61886719 -0.89867187 3.55023438 -0.62109375 2.44921875 C-0.41613281 1.64097656 -0.21117187 0.83273438 0 0 Z " fill="#4E6F77" transform="translate(314,205)"/>
<path d="M0 0 C14.01745509 3.90650388 26.18766634 13.41393394 36 24 C36 24.66 36 25.32 36 26 C36.66 26 37.32 26 38 26 C39.5078125 27.96875 39.5078125 27.96875 41.125 30.5 C41.66382813 31.3353125 42.20265625 32.170625 42.7578125 33.03125 C43.16773438 33.6809375 43.57765625 34.330625 44 35 C40.10371956 35 39.45076251 33.83622313 36.6875 31.1875 C33.34869926 27.98854432 30.21163401 25.92653388 26 24 C26.7940625 24.54269531 27.588125 25.08539063 28.40625 25.64453125 C29.4271875 26.35996094 30.448125 27.07539063 31.5 27.8125 C32.5209375 28.52019531 33.541875 29.22789062 34.59375 29.95703125 C35.3878125 30.63121094 36.181875 31.30539063 37 32 C37 32.99 37 33.98 37 35 C34.4669876 34.57783127 32.37296307 34.21134574 30.125 32.9375 C27.07054228 31.58994512 24.31753959 31.94377052 21 32 C16.18346597 31.65596185 13.05156695 30.6451646 8.9453125 28.11328125 C2.75029503 24.56793993 -4.07259712 22.53942286 -11 21 C-11 20.34 -11 19.68 -11 19 C-11.763125 19.020625 -12.52625 19.04125 -13.3125 19.0625 C-16 19 -16 19 -19 18 C-19.33 42.75 -19.66 67.5 -20 93 C-20.33 93 -20.66 93 -21 93 C-21 67.59 -21 42.18 -21 16 C-16.70600835 14.92650209 -15.80504787 15.20317184 -12 17 C-12.33 13.7 -12.66 10.4 -13 7 C-7.37133625 5.59283406 -5.1406184 7.50528813 0 10 C0 6.7 0 3.4 0 0 Z M9 14 C9.33 14.66 9.66 15.32 10 16 C10.99 15.67 11.98 15.34 13 15 C11.68 14.67 10.36 14.34 9 14 Z M13 16 C15.98232523 19.32643967 18.86370087 21.29152862 23 23 C23.66 22.67 24.32 22.34 25 22 C23.75443908 21.18071114 22.50333365 20.36984814 21.25 19.5625 C20.55390625 19.11003906 19.8578125 18.65757812 19.140625 18.19140625 C17.07042986 17.0391991 15.31303676 16.45323018 13 16 Z M8 24 C8 24.66 8 25.32 8 26 C9.32 25.67 10.64 25.34 12 25 C10.68 24.67 9.36 24.34 8 24 Z M14 27 C15.75244247 28.6483633 15.75244247 28.6483633 18 30 C20.20800528 29.78282648 20.20800528 29.78282648 22 29 C19.09399739 27.74335022 17.20395416 27 14 27 Z " fill="#E6BA67" transform="translate(202,142)"/>
<path d="M0 0 C1.2380014 3.57644848 0.74926071 6.33694766 0 10 C0.61488281 9.71125 1.22976563 9.4225 1.86328125 9.125 C2.67152344 8.75375 3.47976563 8.3825 4.3125 8 C5.51326172 7.443125 5.51326172 7.443125 6.73828125 6.875 C9 6 9 6 12 6 C12 9.63 12 13.26 12 17 C10.90945313 17.42410156 9.81890625 17.84820312 8.6953125 18.28515625 C7.97520996 18.56520508 7.25510742 18.84525391 6.51318359 19.13378906 C4.90415848 19.75950277 3.2951085 20.38515251 1.68603516 21.01074219 C-2.51717836 22.64500777 -6.7200049 24.28025191 -10.921875 25.91796875 C-11.71094238 26.22532959 -12.50000977 26.53269043 -13.31298828 26.84936523 C-14.81151708 27.43311103 -16.30989879 28.01723461 -17.80810547 28.60180664 C-21.31902613 29.96897363 -24.83572595 31.31560898 -28.3671875 32.62890625 C-31.03061813 33.63413652 -33.50487625 34.64847464 -36 36 C-36.66 35.34 -37.32 34.68 -38 34 C-37.67 33.01 -37.34 32.02 -37 31 C-38.175625 32.2375 -38.175625 32.2375 -39.375 33.5 C-42 36 -42 36 -44 36 C-43.41056045 32.75165144 -42.43006183 31.01632173 -40.19140625 28.609375 C-39.61422852 27.98603271 -39.03705078 27.36269043 -38.44238281 26.72045898 C-37.82202148 26.07020752 -37.20166016 25.41995605 -36.5625 24.75 C-35.92795898 24.07976807 -35.29341797 23.40953613 -34.63964844 22.71899414 C-26.67455229 14.4268823 -12.50304082 0 0 0 Z M-11 14 C-18.54343358 16.89386938 -31.23444183 22.46888365 -35 30 C-30.23019512 28.35106355 -26.22413749 25.76298642 -22 23.0625 C-20.60439907 22.1780186 -19.20857098 21.29389552 -17.8125 20.41015625 C-17.15894531 19.99523926 -16.50539063 19.58032227 -15.83203125 19.15283203 C-13.57561026 17.73294665 -11.29427614 16.35774545 -9 15 C-9.66 14.67 -10.32 14.34 -11 14 Z " fill="#E9A548" transform="translate(298,142)"/>
<path d="M0 0 C1.25728103 3.63214521 1.17203565 6.33913963 0 10 C-2.49498304 11.45850999 -4.57061757 12.41288739 -7.25 13.375 C-18.69208187 17.93649997 -28.29791629 24.03609617 -37.66015625 32.1171875 C-39.72775981 33.78093527 -41.58209355 34.93902488 -44 36 C-43.41056045 32.75165144 -42.43006183 31.01632173 -40.19140625 28.609375 C-39.61422852 27.98603271 -39.03705078 27.36269043 -38.44238281 26.72045898 C-37.82202148 26.07020752 -37.20166016 25.41995605 -36.5625 24.75 C-35.92795898 24.07976807 -35.29341797 23.40953613 -34.63964844 22.71899414 C-26.67455229 14.4268823 -12.50304082 0 0 0 Z " fill="#AE4238" transform="translate(298,142)"/>
<path d="M0 0 C14.01745509 3.90650388 26.18766634 13.41393394 36 24 C36 24.66 36 25.32 36 26 C36.66 26 37.32 26 38 26 C39.5078125 27.96875 39.5078125 27.96875 41.125 30.5 C41.66382813 31.3353125 42.20265625 32.170625 42.7578125 33.03125 C43.16773438 33.6809375 43.57765625 34.330625 44 35 C40.19803138 35 39.77972589 34.10463673 37.125 31.5 C29.3539964 24.39329187 20.33524675 19.47301402 10.875 15 C10.23546387 14.69698975 9.59592773 14.39397949 8.93701172 14.08178711 C6.1015394 12.78577769 4.1559424 12 1 12 C-0.26237731 9.47524538 -0.09856404 7.68799534 -0.0625 4.875 C-0.05347656 3.96492187 -0.04445312 3.05484375 -0.03515625 2.1171875 C-0.02355469 1.41851562 -0.01195312 0.71984375 0 0 Z " fill="#4B6770" transform="translate(202,142)"/>
<path d="M0 0 C0.66 0.33 1.32 0.66 2 1 C0.625 3.5 0.625 3.5 -1 6 C-1.66 6 -2.32 6 -3 6 C-3.20625 6.66 -3.4125 7.32 -3.625 8 C-5.49124252 12.07180186 -7.97561527 15.68796998 -11 19 C-11.66 19 -12.32 19 -13 19 C-13.23589844 19.55429688 -13.47179687 20.10859375 -13.71484375 20.6796875 C-15.3126455 23.56447242 -17.31851009 25.71172032 -19.5625 28.125 C-22.63719186 31.31507509 -22.63719186 31.31507509 -25 35 C-25.66 35 -26.32 35 -27 35 C-27.27021973 35.59474121 -27.54043945 36.18948242 -27.81884766 36.80224609 C-28.99011416 38.98160555 -30.16129512 40.41921661 -31.8984375 42.1640625 C-32.46046875 42.72867188 -33.0225 43.29328125 -33.6015625 43.875 C-34.18679688 44.4525 -34.77203125 45.03 -35.375 45.625 C-35.9525 46.21023438 -36.53 46.79546875 -37.125 47.3984375 C-37.68960937 47.96046875 -38.25421875 48.5225 -38.8359375 49.1015625 C-39.60236572 49.86460693 -39.60236572 49.86460693 -40.38427734 50.64306641 C-42.1470064 52.12346049 -43.91033045 53.05056195 -46 54 C-46.33 53.34 -46.66 52.68 -47 52 C-44.8573598 47.46264428 -41.65597066 44.34482422 -38 41 C-37.34 41 -36.68 41 -36 41 C-35.76804932 40.44135254 -35.53609863 39.88270508 -35.29711914 39.30712891 C-33.6617759 36.39841564 -31.62896071 34.42230841 -29.24609375 32.0859375 C-28.30958984 31.16039062 -27.37308594 30.23484375 -26.40820312 29.28125 C-25.41831227 28.31214898 -24.42807386 27.34340287 -23.4375 26.375 C-21.49549092 24.46934629 -19.55765812 22.55964369 -17.62109375 20.6484375 C-16.7592749 19.80458496 -15.89745605 18.96073242 -15.00952148 18.09130859 C-12.95795963 16.16362599 -12.95795963 16.16362599 -12 14 C-11.34 14 -10.68 14 -10 14 C-9.75507813 13.44828125 -9.51015625 12.8965625 -9.2578125 12.328125 C-7.74261886 9.52360509 -5.88915874 7.21896877 -3.875 4.75 C-3.15054688 3.85796875 -2.42609375 2.9659375 -1.6796875 2.046875 C-1.12539063 1.37140625 -0.57109375 0.6959375 0 0 Z " fill="#556A6E" transform="translate(303,213)"/>
<path d="M0 0 C6.1653499 3.73165915 14.67569402 9.02708205 17 16 C17.66 16 18.32 16 19 16 C20.5078125 17.96875 20.5078125 17.96875 22.125 20.5 C22.66382813 21.3353125 23.20265625 22.170625 23.7578125 23.03125 C24.16773438 23.6809375 24.57765625 24.330625 25 25 C21.19803138 25 20.77972589 24.10463673 18.125 21.5 C10.47597385 14.46239682 1.36811766 9.40852596 -8 5 C-7.67 4.01 -7.34 3.02 -7 2 C-6.34 2.33 -5.68 2.66 -5 3 C-5 3.66 -5 4.32 -5 5 C-3.081875 5.185625 -3.081875 5.185625 -1.125 5.375 C2.75 5.75 2.75 5.75 5 8 C3.85123314 4.55369942 2.80859085 4.08379321 0 2 C0 1.34 0 0.68 0 0 Z " fill="#4F666B" transform="translate(221,152)"/>
<path d="M0 0 C0 0.66 0 1.32 0 2 C-0.99 2 -1.98 2 -3 2 C-3 2.66 -3 3.32 -3 4 C-3.99 4 -4.98 4 -6 4 C-6.33 5.32 -6.66 6.64 -7 8 C-5.68 8.33 -4.36 8.66 -3 9 C-6.25730144 11.73836862 -9.51827437 13.10588248 -13.5 14.5625 C-17.10419634 15.88927411 -20.60641601 17.1950791 -24 19 C-24.66 18.34 -25.32 17.68 -26 17 C-22.33222547 13.06825685 -18.5599955 10.20063824 -14 7.375 C-13.39671875 6.9934375 -12.7934375 6.611875 -12.171875 6.21875 C-10.45417052 5.13584935 -8.72728265 4.06755664 -7 3 C-6.071875 2.41476563 -5.14375 1.82953125 -4.1875 1.2265625 C-2 0 -2 0 0 0 Z " fill="#D0985D" transform="translate(286,159)"/>
<path d="M0 0 C0.33 0 0.66 0 1 0 C1.33 23.76 1.66 47.52 2 72 C3.98 71.01 3.98 71.01 6 70 C6.99 69.505 6.99 69.505 8 69 C9.94268841 66.08596738 11.46395304 63.14191424 13 60 C14.32 60.33 15.64 60.66 17 61 C16.360625 61.78375 15.72125 62.5675 15.0625 63.375 C13.01857687 65.79539281 13.01857687 65.79539281 12 68 C11.34 68 10.68 68 10 68 C9.79375 68.7425 9.5875 69.485 9.375 70.25 C7.5787993 73.8424014 5.47882691 75.08309537 2 77 C1.01 77 0.02 77 -1 77 C-0.67 51.59 -0.34 26.18 0 0 Z " fill="#DB9D59" transform="translate(182,160)"/>
<path d="M0 0 C4.93321834 0.70192085 9.25974682 2.63530775 13.8125 4.5625 C14.60076172 4.89185547 15.38902344 5.22121094 16.20117188 5.56054688 C18.13583796 6.36958906 20.06815753 7.18423852 22 8 C22.16813088 15.35051657 22.328039 22.70117874 22.48217773 30.05200195 C22.53561207 32.55367096 22.59094252 35.05530019 22.64819336 37.55688477 C22.73006397 41.14851303 22.80515863 44.74022817 22.87890625 48.33203125 C22.90594131 49.45398392 22.93297638 50.57593658 22.96083069 51.73188782 C22.98092697 52.77274033 23.00102325 53.81359283 23.02172852 54.88598633 C23.04171402 55.80309891 23.06169952 56.72021149 23.08229065 57.66511536 C23 60 23 60 22 63 C17.7257442 61.4169423 15.73468206 58.49431596 13 55 C15.64 55.33 18.28 55.66 21 56 C21 40.49 21 24.98 21 9 C18.03 8.34 15.06 7.68 12 7 C8.49609375 5.4921875 8.49609375 5.4921875 5.4375 3.875 C4.40496094 3.33617187 3.37242187 2.79734375 2.30859375 2.2421875 C1.54675781 1.83226562 0.78492188 1.42234375 0 1 C0 0.67 0 0.34 0 0 Z " fill="#CF9E5D" transform="translate(226,174)"/>
<path d="M0 0 C2.98704569 0.49784095 4.39324263 1.26216175 7 3 C5.02 3 3.04 3 1 3 C0.67 27.75 0.34 52.5 0 78 C-0.33 78 -0.66 78 -1 78 C-1.0231241 67.97772237 -1.04091543 57.95545103 -1.05181217 47.9331522 C-1.05704085 43.27988814 -1.06413823 38.62664226 -1.07543945 33.97338867 C-1.08626886 29.48655454 -1.09227695 24.99973796 -1.09487724 20.51289177 C-1.0967314 18.79719707 -1.10035182 17.08150338 -1.10573006 15.36581612 C-1.11294121 12.97115087 -1.11399091 10.57655904 -1.11352539 8.18188477 C-1.11712067 7.46547318 -1.12071594 6.74906158 -1.12442017 6.01094055 C-1.11405216 1.11405216 -1.11405216 1.11405216 0 0 Z " fill="#C79F6D" transform="translate(182,157)"/>
<path d="M0 0 C0 3 0 3 -1 6 C-0.34 6.66 0.32 7.32 1 8 C-0.35544922 9.03060547 -0.35544922 9.03060547 -1.73828125 10.08203125 C-2.92977653 10.99207095 -4.12117786 11.90223366 -5.3125 12.8125 C-6.20485352 13.49022461 -6.20485352 13.49022461 -7.11523438 14.18164062 C-9.45333988 15.97114037 -11.72645243 17.72168472 -13.79296875 19.82421875 C-15 21 -15 21 -17 21 C-16.41132576 17.59533676 -15.28268537 15.88023004 -12.91015625 13.3984375 C-12.29076172 12.74359375 -11.67136719 12.08875 -11.03320312 11.4140625 C-10.38287109 10.74117187 -9.73253906 10.06828125 -9.0625 9.375 C-8.41603516 8.694375 -7.76957031 8.01375 -7.10351562 7.3125 C-4.75990601 4.84964129 -2.40400151 2.40400151 0 0 Z " fill="#A04A41" transform="translate(271,157)"/>
<path d="M0 0 C-1.125 2.875 -1.125 2.875 -3 6 C-6.0625 7.25 -6.0625 7.25 -9 8 C-9.66 8.66 -10.32 9.32 -11 10 C-13.625 10.125 -13.625 10.125 -16 10 C-16 8.35 -16 6.7 -16 5 C-14.28133783 3.9615789 -12.54955402 2.94485365 -10.8125 1.9375 C-9.84957031 1.36902344 -8.88664062 0.80054688 -7.89453125 0.21484375 C-4.67083459 -1.13815174 -3.27479579 -1.04769518 0 0 Z " fill="#BC392F" transform="translate(299,145)"/>
<path d="M0 0 C0.3721042 1.32303717 0.70630173 2.65737935 1 4 C1.66 4.33 2.32 4.66 3 5 C2.154375 5.9075 1.30875 6.815 0.4375 7.75 C-1.73261875 10.18952952 -1.73261875 10.18952952 -1.8125 13.375 C-1.544375 13.91125 -1.27625 14.4475 -1 15 C-2.32 13.68 -3.64 12.36 -5 11 C-3.68 7.7 -2.36 4.4 -1 1 C-2.27875 2.11375 -3.5575 3.2275 -4.875 4.375 C-5.59429687 5.00148437 -6.31359375 5.62796875 -7.0546875 6.2734375 C-8.4076598 7.47426834 -9.7208345 8.7208345 -11 10 C-13.125 9.625 -13.125 9.625 -15 9 C-13.33333333 7.33333333 -11.66666667 5.66666667 -10 4 C-9.29875 3.2575 -8.5975 2.515 -7.875 1.75 C-5.0304713 -0.90489345 -3.70522138 -1.23507379 0 0 Z " fill="#100F0E" transform="translate(216,214)"/>
<path d="M0 0 C0.66 0.33 1.32 0.66 2 1 C0.625 3.5 0.625 3.5 -1 6 C-1.66 6 -2.32 6 -3 6 C-3.20625 6.66 -3.4125 7.32 -3.625 8 C-5.49124252 12.07180186 -7.97561527 15.68796998 -11 19 C-11.66 19 -12.32 19 -13 19 C-13.66 20.32 -14.32 21.64 -15 23 C-15.99 23 -16.98 23 -18 23 C-16.4722133 19.56247993 -14.49818944 16.81046312 -12 14 C-11.34 14 -10.68 14 -10 14 C-9.75507813 13.44828125 -9.51015625 12.8965625 -9.2578125 12.328125 C-7.74261886 9.52360509 -5.88915874 7.21896877 -3.875 4.75 C-3.15054687 3.85796875 -2.42609375 2.9659375 -1.6796875 2.046875 C-1.12539063 1.37140625 -0.57109375 0.6959375 0 0 Z " fill="#425258" transform="translate(303,213)"/>
<path d="M0 0 C3.9430345 0.61961971 6.55167752 2.56510043 9.75 4.875 C10.73484375 5.57367188 11.7196875 6.27234375 12.734375 6.9921875 C13.48203125 7.65476563 14.2296875 8.31734375 15 9 C15 9.99 15 10.98 15 12 C10.39146203 11.27991594 6.32762591 9.68704061 2 8 C2.66 7.34 3.32 6.68 4 6 C4 5.01 4 4.02 4 3 C3.01 3 2.02 3 1 3 C0.67 2.01 0.34 1.02 0 0 Z " fill="#D0B177" transform="translate(224,165)"/>
<path d="M0 0 C1.32 0.99 2.64 1.98 4 3 C3.34 6.96 2.68 10.92 2 15 C0 14 -2 13 -4 12 C-4 8.48283697 -3.17554415 7.62878252 -1 5 C-1.33 4.67 -1.66 4.34 -2 4 C-1.34 2.68 -0.68 1.36 0 0 Z " fill="#1C1C1F" transform="translate(255,250)"/>
<path d="M0 0 C-0.33 0.66 -0.66 1.32 -1 2 C-2.65 2 -4.3 2 -6 2 C-6.33 2.66 -6.66 3.32 -7 4 C-8.99609375 4.78125 -8.99609375 4.78125 -11.4375 5.5 C-15.09382035 6.57316512 -15.09382035 6.57316512 -18 9 C-21.125 9.125 -21.125 9.125 -24 9 C-23.67 8.01 -23.34 7.02 -23 6 C-21.06640625 5.19140625 -21.06640625 5.19140625 -18.5625 4.5625 C-13.87969259 3.30433192 -9.55870986 1.63435621 -5.12890625 -0.328125 C-3 -1 -3 -1 0 0 Z " fill="#5E6A6B" transform="translate(286,171)"/>
<path d="M0 0 C1.32 0.33 2.64 0.66 4 1 C3.360625 1.78375 2.72125 2.5675 2.0625 3.375 C0.01857687 5.79539281 0.01857687 5.79539281 -1 8 C-1.66 8 -2.32 8 -3 8 C-3.20625 8.7425 -3.4125 9.485 -3.625 10.25 C-5.4212007 13.8424014 -7.52117309 15.08309537 -11 17 C-11.99 17 -12.98 17 -14 17 C-14 16.34 -14 15.68 -14 15 C-13.34 15 -12.68 15 -12 15 C-11.67 14.01 -11.34 13.02 -11 12 C-9.0625 10.875 -9.0625 10.875 -7 10 C-3.14328183 8.07164092 -1.82008992 3.7229112 0 0 Z " fill="#C18F4F" transform="translate(195,220)"/>
<path d="M0 0 C0.89525391 0.29777344 0.89525391 0.29777344 1.80859375 0.6015625 C0.56504489 1.89944116 -0.68653265 3.18963009 -1.94140625 4.4765625 C-2.6375 5.19585937 -3.33359375 5.91515625 -4.05078125 6.65625 C-6.04262842 8.46635929 -7.73417205 9.55004336 -10.19140625 10.6015625 C-10.52140625 9.9415625 -10.85140625 9.2815625 -11.19140625 8.6015625 C-9.22205545 4.19948423 -5.32785082 -0.96870015 0 0 Z " fill="#51676C" transform="translate(267.19140625,256.3984375)"/>
<path d="M0 0 C2.85784851 2.85784851 2.49700676 5.84646361 2.6875 9.6875 C2.75807617 10.73067383 2.75807617 10.73067383 2.83007812 11.79492188 C3.08754771 16.31541248 2.94460337 20.54032712 2 25 C1.34 25.33 0.68 25.66 0 26 C0 17.42 0 8.84 0 0 Z " fill="#556D6E" transform="translate(252,200)"/>
<path d="M0 0 C0 3.63 0 7.26 0 11 C-1.65 11.33 -3.3 11.66 -5 12 C-4.34 11.67 -3.68 11.34 -3 11 C-2.53476937 9.10466658 -2.53476937 9.10466658 -2.375 6.9375 C-2.25125 5.638125 -2.1275 4.33875 -2 3 C-2.598125 3.515625 -3.19625 4.03125 -3.8125 4.5625 C-4.534375 5.036875 -5.25625 5.51125 -6 6 C-6.99 5.67 -7.98 5.34 -9 5 C-8.67 4.01 -8.34 3.02 -8 2 C-5.10441559 0.5522078 -3.25811062 0 0 0 Z " fill="#D4A35D" transform="translate(310,148)"/>
<path d="M0 0 C0.66 0.99 1.32 1.98 2 3 C0.576875 3.6496875 0.576875 3.6496875 -0.875 4.3125 C-4.20041937 5.79302201 -4.20041937 5.79302201 -6 9 C-7.32 8.34 -8.64 7.68 -10 7 C-9.67 5.68 -9.34 4.36 -9 3 C-8.01 3 -7.02 3 -6 3 C-6 2.34 -6 1.68 -6 1 C-4.02 0.67 -2.04 0.34 0 0 Z " fill="#ECA544" transform="translate(289,160)"/>
<path d="M0 0 C1.65 0 3.3 0 5 0 C4.875 1.75 4.875 1.75 4 4 C2.02053408 5.36363208 0.0180755 6.69418644 -2 8 C-4.32277416 10.6091387 -4.32277416 10.6091387 -6 13 C-6.66 12.67 -7.32 12.34 -8 12 C-7.67 11.01 -7.34 10.02 -7 9 C-6.01 9 -5.02 9 -4 9 C-3.855625 8.38125 -3.71125 7.7625 -3.5625 7.125 C-3 5 -3 5 -2 3 C-1.34 3 -0.68 3 0 3 C0 2.01 0 1.02 0 0 Z " fill="#C8955B" transform="translate(210,206)"/>
<path d="M0 0 C0 2.33333333 0 4.66666667 0 7 C-2.1875 7.75 -2.1875 7.75 -5 8 C-7.8125 6.0625 -7.8125 6.0625 -10 4 C-3.56521739 0 -3.56521739 0 0 0 Z " fill="#262729" transform="translate(267,264)"/>
<path d="M0 0 C3.95397245 0.43933027 6.73348973 1.76010725 10 4 C10 4.33 10 4.66 10 5 C7.69 5 5.38 5 3 5 C2.34 6.98 1.68 8.96 1 11 C0.67 11 0.34 11 0 11 C-0.19406478 9.35492782 -0.38007935 7.70890406 -0.5625 6.0625 C-0.66691406 5.14597656 -0.77132812 4.22945312 -0.87890625 3.28515625 C-0.91886719 2.53105469 -0.95882812 1.77695313 -1 1 C-0.67 0.67 -0.34 0.34 0 0 Z " fill="#DCB984" transform="translate(190,148)"/>
<path d="M0 0 C0.66 0 1.32 0 2 0 C2.33 0.99 2.66 1.98 3 3 C-0.84918588 5.58787073 -4.28821764 6.72780374 -8.8125 7.6875 C-9.97394531 7.93886719 -11.13539063 8.19023437 -12.33203125 8.44921875 C-13.21246094 8.63097656 -14.09289062 8.81273437 -15 9 C-15 8.34 -15 7.68 -15 7 C-12.09399739 5.74335022 -10.20395416 5 -7 5 C-6.67 4.34 -6.34 3.68 -6 3 C-2.9375 2.375 -2.9375 2.375 0 2 C0 1.34 0 0.68 0 0 Z " fill="#586764" transform="translate(308,159)"/>
<path d="M0 0 C0.66 0.33 1.32 0.66 2 1 C0.02 1.99 0.02 1.99 -2 3 C-2 3.66 -2 4.32 -2 5 C-1.01 5.33 -0.02 5.66 1 6 C-4.17578125 9.22265625 -4.17578125 9.22265625 -6 10 C-6.99 9.67 -7.98 9.34 -9 9 C-6.78310162 4.56620325 -4.22271781 2.53363068 0 0 Z " fill="#BF9670" transform="translate(269,168)"/>
<path d="M0 0 C0.96846689 2.61486062 1.04559628 3.8442127 0.25 6.5625 C-0.94702102 8.89669098 -2.12897024 10.21401705 -4 12 C-4 12.66 -4 13.32 -4 14 C-6.97 13.505 -6.97 13.505 -10 13 C-8.74874616 9.24623848 -7.4347596 8.75926711 -4 7 C-3.34 7 -2.68 7 -2 7 C-1.855625 6.21625 -1.71125 5.4325 -1.5625 4.625 C-1 2 -1 2 0 0 Z " fill="#4F646A" transform="translate(312,215)"/>
<path d="M0 0 C-2.62353518 1.00399524 -5.24867795 2.00334445 -7.875 3 C-8.62136719 3.28617188 -9.36773437 3.57234375 -10.13671875 3.8671875 C-15.7734375 6 -15.7734375 6 -18 6 C-17 3 -17 3 -13.8125 1.375 C-9.0229241 -0.4897939 -5.01000838 -1.41610515 0 0 Z " fill="#C69A59" transform="translate(302,162)"/>
<path d="M0 0 C4.875 2.75 4.875 2.75 6 5 C9.02934491 5.65772428 9.02934491 5.65772428 12 6 C12 6.66 12 7.32 12 8 C10.3745692 7.85904936 8.74965949 7.71207913 7.125 7.5625 C6.22007812 7.48128906 5.31515625 7.40007812 4.3828125 7.31640625 C2 7 2 7 0 6 C0 5.34 0 4.68 0 4 C-1.65 4 -3.3 4 -5 4 C-5 3.67 -5 3.34 -5 3 C-3.35 3 -1.7 3 0 3 C0 2.01 0 1.02 0 0 Z " fill="#DEA953" transform="translate(191,157)"/>
<path d="M0 0 C1.32 0 2.64 0 4 0 C3.67 0.99 3.34 1.98 3 3 C2.01 3 1.02 3 0 3 C0 4.32 0 5.64 0 7 C-3.3 7 -6.6 7 -10 7 C-6.71195019 4.08772731 -4.40114397 2.50298788 0 2 C0 1.34 0 0.68 0 0 Z " fill="#DD8F48" transform="translate(296,152)"/>
<path d="M0 0 C0.99 0.33 1.98 0.66 3 1 C3 1.66 3 2.32 3 3 C4.216875 3.04125 5.43375 3.0825 6.6875 3.125 C10.21271475 3.53199637 11.75280133 4.31016733 14 7.0625 C14.66 8.031875 15.32 9.00125 16 10 C12.11908033 10 9.60326704 8.34682267 6.3125 6.5 C5.70599609 6.16613281 5.09949219 5.83226562 4.47460938 5.48828125 C2.97996769 4.664463 1.48956329 3.83296549 0 3 C0 2.01 0 1.02 0 0 Z " fill="#4B5D5C" transform="translate(213,154)"/>
<path d="M0 0 C0.33 0.66 0.66 1.32 1 2 C1.66 2 2.32 2 3 2 C3.33 1.34 3.66 0.68 4 0 C5.60031344 3.20062687 4.03173691 5.72271806 3 9 C1.29159719 7.36587557 0.06546953 6.13093906 -1 4 C-1.33 4.66 -1.66 5.32 -2 6 C-2.99 5.67 -3.98 5.34 -5 5 C-3.35 3.35 -1.7 1.7 0 0 Z " fill="#415A5F" transform="translate(293,208)"/>
<path d="M0 0 C0.33 0.99 0.66 1.98 1 3 C0.28328125 2.95101562 -0.4334375 2.90203125 -1.171875 2.8515625 C-4.42917051 3.02252552 -6.36619848 3.88129442 -9.25 5.375 C-10.55710937 6.03628906 -10.55710937 6.03628906 -11.890625 6.7109375 C-14.13374192 7.82581806 -14.13374192 7.82581806 -15 10 C-16.32 9.67 -17.64 9.34 -19 9 C-4.52427184 0 -4.52427184 0 0 0 Z " fill="#9E4B44" transform="translate(298,142)"/>
<path d="M0 0 C2.75 0.25 2.75 0.25 5 1 C5 2.98 5 4.96 5 7 C4.01 7.495 4.01 7.495 3 8 C2.34 6.35 1.68 4.7 1 3 C-0.485 5.475 -0.485 5.475 -2 8 C-2.66 6.68 -3.32 5.36 -4 4 C-2.3125 1.9375 -2.3125 1.9375 0 0 Z " fill="#4E6066" transform="translate(265,238)"/>
<path d="M0 0 C1.98 0.495 1.98 0.495 4 1 C4 3.31 4 5.62 4 8 C2.02 8.99 2.02 8.99 0 10 C-1.2380014 6.42355152 -0.74926071 3.66305234 0 0 Z " fill="#4E646C" transform="translate(314,205)"/>
<path d="M0 0 C0.99 1.32 1.98 2.64 3 4 C1.71372289 5.17260611 0.42080217 6.3379283 -0.875 7.5 C-1.59429687 8.1496875 -2.31359375 8.799375 -3.0546875 9.46875 C-5 11 -5 11 -7 11 C-6.40716379 7.60807637 -5.23256811 5.7892243 -2.9375 3.25 C-2.38964844 2.63640625 -1.84179688 2.0228125 -1.27734375 1.390625 C-0.85582031 0.93171875 -0.43429687 0.4728125 0 0 Z " fill="#8F554D" transform="translate(261,167)"/>
<path d="M0 0 C0.8971875 0.309375 0.8971875 0.309375 1.8125 0.625 C0.8225 0.955 -0.1675 1.285 -1.1875 1.625 C-1.496875 2.45 -1.80625 3.275 -2.125 4.125 C-2.475625 4.95 -2.82625 5.775 -3.1875 6.625 C-5.25 7.25 -5.25 7.25 -7.1875 7.625 C-7.5175 8.615 -7.8475 9.605 -8.1875 10.625 C-8.5175 9.965 -8.8475 9.305 -9.1875 8.625 C-4.49013158 -0.76973684 -4.49013158 -0.76973684 0 0 Z " fill="#211E1A" transform="translate(202.1875,221.375)"/>
<path d="M0 0 C0.66 0 1.32 0 2 0 C2 0.66 2 1.32 2 2 C2.99 2.33 3.98 2.66 5 3 C5 3.66 5 4.32 5 5 C5.66 5.66 6.32 6.32 7 7 C7.33 7.845625 7.66 8.69125 8 9.5625 C8.74870114 12.14841441 8.74870114 12.14841441 11 13 C12.0194119 13.98020375 13.02246356 14.97803008 14 16 C11.80078125 15.9375 11.80078125 15.9375 9 15 C7.16855127 12.67065344 5.68166958 10.52591729 4.1875 8 C3.78080078 7.34515625 3.37410156 6.6903125 2.95507812 6.015625 C0 1.20803571 0 1.20803571 0 0 Z " fill="#C07E4F" transform="translate(224,214)"/>
<path d="M0 0 C0.66 0.33 1.32 0.66 2 1 C2 1.66 2 2.32 2 3 C1.01 3 0.02 3 -1 3 C-1 3.66 -1 4.32 -1 5 C-3.90600261 6.25664978 -5.79604584 7 -9 7 C-9 6.34 -9 5.68 -9 5 C-6.03812728 2.82796 -3.49314009 1.16438003 0 0 Z " fill="#E8A454" transform="translate(276,166)"/>
<path d="M0 0 C4.9723422 1.49170266 9.41845739 3.60457417 14 6 C13.67 6.66 13.34 7.32 13 8 C8.71 6.35 4.42 4.7 0 3 C0 2.01 0 1.02 0 0 Z " fill="#DCB378" transform="translate(211,164)"/>
<path d="M0 0 C0.33 0 0.66 0 1 0 C1 3.3 1 6.6 1 10 C-4.75 13 -4.75 13 -7 13 C-5.86280581 9.58841744 -4.95657056 8.88145399 -2 7 C-1.34 7 -0.68 7 0 7 C0 4.69 0 2.38 0 0 Z " fill="#53696E" transform="translate(317,258)"/>
<path d="M0 0 C0.12375 0.639375 0.2475 1.27875 0.375 1.9375 C0.684375 2.9584375 0.684375 2.9584375 1 4 C1.66 4.33 2.32 4.66 3 5 C3 5.66 3 6.32 3 7 C4.32 7.33 5.64 7.66 7 8 C7 8.66 7 9.32 7 10 C2.89041233 8.54955729 -0.43258745 6.48889248 -4 4 C-2.68 2.68 -1.36 1.36 0 0 Z " fill="#476063" transform="translate(279,257)"/>
<path d="M0 0 C4.19360449 0.67097672 7.40334352 2.8558394 11 5 C10.67 5.66 10.34 6.32 10 7 C8.35 7 6.7 7 5 7 C5 6.01 5 5.02 5 4 C3.35 3.67 1.7 3.34 0 3 C0 2.01 0 1.02 0 0 Z " fill="#CAAF73" transform="translate(212,158)"/>
<path d="M0 0 C2 2 2 2 2.1953125 3.9453125 C2.13020833 5.96354167 2.06510417 7.98177083 2 10 C0.68 9.34 -0.64 8.68 -2 8 C-1.125 1.125 -1.125 1.125 0 0 Z " fill="#566A73" transform="translate(316,196)"/>
<path d="M0 0 C6.18160604 0.53753096 11.326858 2.54582388 17 5 C12.72847559 6.42384147 9.0824431 5.99472039 4.98828125 4.0390625 C3.29819505 3.07231948 1.64540634 2.04097136 0 1 C0 0.67 0 0.34 0 0 Z " fill="#D7AD64" transform="translate(209,168)"/>
<path d="M0 0 C2.475 0.99 2.475 0.99 5 2 C2.14978125 4.32240046 -0.46355091 5.93906527 -4 7 C-6.3125 6.625 -6.3125 6.625 -8 6 C-6.35 5.67 -4.7 5.34 -3 5 C-3 4.34 -3 3.68 -3 3 C-1.5 1.375 -1.5 1.375 0 0 Z " fill="#CA984D" transform="translate(278,166)"/>
<path d="M0 0 C-0.33 0.66 -0.66 1.32 -1 2 C-2.65 2 -4.3 2 -6 2 C-6.33 2.66 -6.66 3.32 -7 4 C-10.0625 4.625 -10.0625 4.625 -13 5 C-13 4.34 -13 3.68 -13 3 C-11.40084119 2.30093058 -9.79544955 1.61610532 -8.1875 0.9375 C-7.29417969 0.55464844 -6.40085937 0.17179688 -5.48046875 -0.22265625 C-3 -1 -3 -1 0 0 Z " fill="#536867" transform="translate(286,171)"/>
<path d="M0 0 C4.27454425 2.7479213 8.14126153 5.69250989 12 9 C11.34 9.66 10.68 10.32 10 11 C9.67 10.34 9.34 9.68 9 9 C8.34 8.855625 7.68 8.71125 7 8.5625 C6.34 8.376875 5.68 8.19125 5 8 C4.67 7.01 4.34 6.02 4 5 C2.67151309 3.99357052 1.33849671 2.99307821 0 2 C0 1.34 0 0.68 0 0 Z " fill="#4A6268" transform="translate(221,152)"/>
<path d="M0 0 C0.66 0.66 1.32 1.32 2 2 C-0.80804268 4.96404505 -3.18315774 7.44499019 -7 9 C-7.33 8.01 -7.66 7.02 -8 6 C-7.34 5.34 -6.68 4.68 -6 4 C-5.34 4 -4.68 4 -4 4 C-2.62689293 2.70766393 -1.28965176 1.37562854 0 0 Z " fill="#121113" transform="translate(209,235)"/>
<path d="M0 0 C-0.66 2.97 -1.32 5.94 -2 9 C-2.33 7.68 -2.66 6.36 -3 5 C-3.99 4.67 -4.98 4.34 -6 4 C-6 3.34 -6 2.68 -6 2 C-3 0 -3 0 0 0 Z " fill="#0F0E0B" transform="translate(206,230)"/>
<path d="M0 0 C3.73884332 2.65654657 5.64978174 4.58110387 7 9 C3.2047869 7.50902342 1.38957269 5.24299151 -1 2 C-0.67 1.34 -0.34 0.68 0 0 Z " fill="#525C5A" transform="translate(239,169)"/>
<path d="M0 0 C0.99 0 1.98 0 3 0 C3 0.66 3 1.32 3 2 C3.928125 2.103125 4.85625 2.20625 5.8125 2.3125 C9.14965236 3.03227796 9.83186532 3.57142872 12 6 C10.56138706 5.91253716 9.12402492 5.80434652 7.6875 5.6875 C6.88699219 5.62949219 6.08648437 5.57148438 5.26171875 5.51171875 C2.60933741 4.91161175 1.63496121 4.14291033 0 2 C0 1.34 0 0.68 0 0 Z " fill="#BEA872" transform="translate(200,152)"/>
<path d="M0 0 C0.99 0 1.98 0 3 0 C5 3 5 3 5 6 C5.66 6 6.32 6 7 6 C6.67 6.99 6.34 7.98 6 9 C4.29115995 7.37660195 2.62553283 5.70680947 1 4 C1 3.34 1 2.68 1 2 C0.34 1.67 -0.32 1.34 -1 1 C-0.67 0.67 -0.34 0.34 0 0 Z " fill="#CA8D52" transform="translate(217,205)"/>
<path d="M0 0 C-1 3 -1 3 -2.875 4.1875 C-5 5 -5 5 -8 5 C-8.33 5.66 -8.66 6.32 -9 7 C-8.875 5.1875 -8.875 5.1875 -8 3 C-2.96428571 0 -2.96428571 0 0 0 Z " fill="#4F666B" transform="translate(315,193)"/>
<path d="M0 0 C3.59391114 1.33488128 6.75490696 2.96022723 10 5 C7.36660729 5.97533063 6.07651653 6.019574 3.3125 5.3125 C1 4 1 4 0.1875 1.875 C0.125625 1.25625 0.06375 0.6375 0 0 Z " fill="#201E1E" transform="translate(276,265)"/>
<path d="M0 0 C-1.5625 1.625 -1.5625 1.625 -4 3 C-7.75 2.1875 -7.75 2.1875 -11 1 C-11 0.67 -11 0.34 -11 0 C-3.57142857 -1.28571429 -3.57142857 -1.28571429 0 0 Z " fill="#4F6164" transform="translate(286,251)"/>
<path d="M0 0 C2.98704569 0.49784095 4.39324263 1.26216175 7 3 C5.02 3 3.04 3 1 3 C0.67 5.64 0.34 8.28 0 11 C-0.33 11 -0.66 11 -1 11 C-1.02688151 9.35425434 -1.04634123 7.70838587 -1.0625 6.0625 C-1.07410156 5.14597656 -1.08570313 4.22945312 -1.09765625 3.28515625 C-1 1 -1 1 0 0 Z " fill="#D2AA74" transform="translate(182,157)"/>
<path d="M0 0 C0.99 0 1.98 0 3 0 C2.67 2.31 2.34 4.62 2 7 C1.34 6.67 0.68 6.34 0 6 C-0.680625 5.690625 -1.36125 5.38125 -2.0625 5.0625 C-4 4 -4 4 -5 2 C-3.68 2 -2.36 2 -1 2 C-0.67 1.34 -0.34 0.68 0 0 Z " fill="#212226" transform="translate(255,258)"/>
<path d="M0 0 C2 3 2 3 2 5 C3.32 4.67 4.64 4.34 6 4 C5.34 5.32 4.68 6.64 4 8 C-0.875 3.25 -0.875 3.25 -2 1 C-1.34 0.67 -0.68 0.34 0 0 Z " fill="#4C5E65" transform="translate(256,243)"/>
<path d="M0 0 C0.66 0.33 1.32 0.66 2 1 C0.625 3.5 0.625 3.5 -1 6 C-1.66 6 -2.32 6 -3 6 C-3.66 7.32 -4.32 8.64 -5 10 C-5.33 9.01 -5.66 8.02 -6 7 C-4.78515625 5.17578125 -4.78515625 5.17578125 -3.0625 3.3125 C-2.49660156 2.68988281 -1.93070312 2.06726563 -1.34765625 1.42578125 C-0.90292969 0.95527344 -0.45820313 0.48476562 0 0 Z " fill="#5C6365" transform="translate(303,213)"/>
<path d="M0 0 C3 1.8125 3 1.8125 6 4 C6 4.99 6 5.98 6 7 C4.35 6.67 2.7 6.34 1 6 C0.67 4.02 0.34 2.04 0 0 Z " fill="#A69979" transform="translate(233,170)"/>
<path d="M0 0 C1.32 0 2.64 0 4 0 C3.34 1.65 2.68 3.3 2 5 C0.68 4.67 -0.64 4.34 -2 4 C-1.34 2.68 -0.68 1.36 0 0 Z " fill="#A94333" transform="translate(263,165)"/>
<path d="M0 0 C0.99 0 1.98 0 3 0 C3.66 1.65 4.32 3.3 5 5 C0.44615385 5.36923077 0.44615385 5.36923077 -1.8125 3.5 C-2.204375 3.005 -2.59625 2.51 -3 2 C-2.01 2 -1.02 2 0 2 C0 1.34 0 0.68 0 0 Z " fill="#E8A26E" transform="translate(205,163)"/>
<path d="M0 0 C4.95 1.98 4.95 1.98 10 4 C10 4.66 10 5.32 10 6 C6.7 5.34 3.4 4.68 0 4 C0 2.68 0 1.36 0 0 Z " fill="#5A6963" transform="translate(203,150)"/>
<path d="M0 0 C0.33 0.99 0.66 1.98 1 3 C0.01 3.495 0.01 3.495 -1 4 C-1.99 5.485 -1.99 5.485 -3 7 C-3.99 7 -4.98 7 -6 7 C-6 4 -6 4 -4.125 1.8125 C-2 0 -2 0 0 0 Z " fill="#536A6E" transform="translate(295,243)"/>
<path d="M0 0 C0.66 0 1.32 0 2 0 C0.8141763 3.37503669 -0.27573689 5.64722731 -3 8 C-3.66 7.67 -4.32 7.34 -5 7 C-4.67 6.01 -4.34 5.02 -4 4 C-3.01 4 -2.02 4 -1 4 C-0.67 2.68 -0.34 1.36 0 0 Z " fill="#B08B59" transform="translate(207,211)"/>
<path d="M0 0 C0.98120464 3.05263664 0.98120464 4.94736336 0 8 C-0.66 8 -1.32 8 -2 8 C-2 6.35 -2 4.7 -2 3 C-2.66 2.67 -3.32 2.34 -4 2 C-3.34 1.67 -2.68 1.34 -2 1 C-1.34 1.33 -0.68 1.66 0 2 C0 1.34 0 0.68 0 0 Z " fill="#4E5F63" transform="translate(287,217)"/>
<path d="M0 0 C2 2 2 2 2 5 C0.02 5.99 0.02 5.99 -2 7 C-2.33 6.34 -2.66 5.68 -3 5 C-1.5625 2.375 -1.5625 2.375 0 0 Z " fill="#3D4C51" transform="translate(259,260)"/>
<path d="M0 0 C0.66 0.33 1.32 0.66 2 1 C0.02 3.31 -1.96 5.62 -4 8 C-4.66 7.34 -5.32 6.68 -6 6 C-6 5.34 -6 4.68 -6 4 C-5.38125 3.896875 -4.7625 3.79375 -4.125 3.6875 C-1.63473516 3.12474627 -1.63473516 3.12474627 0 0 Z " fill="#52686D" transform="translate(278,223)"/>
<path d="M0 0 C2.0625 0.4375 2.0625 0.4375 4 1 C2.07423885 3.43929746 0.19909405 5.80090595 -2 8 C-1.125 1.125 -1.125 1.125 0 0 Z " fill="#B77345" transform="translate(195,220)"/>
<path d="M0 0 C0 0.66 0 1.32 0 2 C-3.08809695 3.76462683 -4.23312136 4 -8 4 C-8 3.34 -8 2.68 -8 2 C-2.25 0 -2.25 0 0 0 Z " fill="#5B6E70" transform="translate(293,167)"/>
<path d="M0 0 C0.66 0 1.32 0 2 0 C2 1.32 2 2.64 2 4 C-0.31 4.66 -2.62 5.32 -5 6 C-3.625 4 -3.625 4 -2 2 C-1.34 2 -0.68 2 0 2 C0 1.34 0 0.68 0 0 Z " fill="#566589" transform="translate(267,252)"/>
<path d="M0 0 C2.31 0 4.62 0 7 0 C5.75 1.5 5.75 1.5 4 3 C2.68 3 1.36 3 0 3 C0 2.01 0 1.02 0 0 Z " fill="#D5A059" transform="translate(196,217)"/>
<path d="M0 0 C0.66 0.66 1.32 1.32 2 2 C1.34 4.31 0.68 6.62 0 9 C-0.66 8.67 -1.32 8.34 -2 8 C-2.20086443 4.28400809 -2.1519437 3.22791555 0 0 Z " fill="#506363" transform="translate(296,208)"/>
<path d="" fill="#000000" transform="translate(0,0)"/>
<path d="" fill="#404040" transform="translate(0,0)"/>
<path d="" fill="#000000" transform="translate(0,0)"/>
</svg>
