<?xml version="1.0" standalone="no"?>
<!DOCTYPE svg PUBLIC "-//W3C//DTD SVG 20010904//EN"
 "http://www.w3.org/TR/2001/REC-SVG-20010904/DTD/svg10.dtd">
<svg version="1.0" xmlns="http://www.w3.org/2000/svg"
 width="1408.000000pt" height="768.000000pt" viewBox="0 0 1408.000000 768.000000"
 preserveAspectRatio="xMidYMid meet">

<g transform="translate(0.000000,768.000000) scale(0.100000,-0.100000)"
fill="#000000" stroke="none">
<path d="M0 3840 l0 -3840 7040 0 7040 0 0 3840 0 3840 -7040 0 -7040 0 0
-3840z m10330 -55 l0 -1585 -2875 0 -2875 0 0 820 0 820 -470 0 -470 0 0 765
0 765 3345 0 3345 0 0 -1585z"/>
<path d="M3730 4605 l0 -675 361 0 c340 0 361 1 354 18 -4 9 -17 46 -30 82
-13 36 -62 171 -110 300 -48 129 -97 264 -110 300 -80 226 -95 254 -145 276
-30 13 -40 24 -40 41 l0 23 260 0 260 0 0 -25 c0 -20 -7 -26 -40 -35 -68 -18
-66 -27 49 -370 57 -168 108 -316 113 -330 11 -27 1 -49 126 302 l42 116 -40
104 c-55 142 -70 165 -120 178 -33 9 -40 15 -40 35 l0 25 260 0 260 0 0 -25
c0 -20 -7 -26 -40 -35 -53 -14 -64 -37 -46 -92 67 -193 232 -626 237 -620 4 4
18 45 32 92 14 47 58 190 98 319 68 218 72 236 58 260 -9 15 -31 31 -54 39
-49 16 -57 24 -49 45 5 15 27 17 179 17 l172 0 -5 -26 c-3 -18 -16 -30 -43
-41 -22 -8 -47 -28 -58 -47 -24 -39 -132 -348 -251 -716 -51 -157 -95 -288
-99 -291 -3 -4 -38 -9 -77 -11 l-72 -4 -52 141 c-84 225 -195 505 -200 505 -3
0 -48 -116 -100 -258 l-95 -257 0 -835 0 -835 2780 0 2780 0 3 1493 2 1492
-3255 0 -3255 0 0 -675z m3660 110 l0 -105 90 0 90 0 0 -45 0 -45 -90 0 -90 0
0 -245 c0 -196 3 -252 15 -274 22 -44 71 -54 125 -26 27 14 30 14 44 -7 15
-21 14 -24 -12 -45 -86 -72 -193 -108 -275 -92 -23 4 -45 8 -49 9 -18 1 -73
59 -89 95 -16 35 -19 69 -19 275 0 129 -3 252 -6 273 -6 35 -8 37 -45 37 -34
0 -39 3 -39 23 0 17 14 29 68 54 78 37 142 96 184 171 27 47 33 52 64 52 l34
0 0 -105z m-1248 -103 c90 -39 159 -127 174 -219 l6 -40 -213 -53 c-249 -61
-259 -65 -259 -85 0 -31 50 -114 90 -148 91 -77 234 -74 311 7 29 31 40 32 63
7 16 -18 15 -22 -31 -82 -95 -126 -197 -175 -340 -167 -94 6 -154 30 -219 90
-89 82 -137 234 -115 366 28 167 138 294 291 337 70 19 183 13 242 -13z m736
2 c26 -9 50 -19 53 -22 4 -4 10 -49 14 -99 l7 -93 -31 0 c-27 0 -34 6 -55 48
-38 74 -76 105 -138 110 -72 6 -108 -21 -108 -80 0 -53 33 -83 136 -125 115
-47 168 -84 201 -140 24 -41 28 -59 28 -118 -1 -107 -50 -182 -155 -236 -85
-43 -285 -37 -381 12 l-37 18 -7 101 c-4 55 -8 103 -9 107 0 5 13 9 31 11 28
3 33 -1 39 -23 3 -14 23 -52 44 -84 46 -72 108 -107 172 -98 55 7 92 45 92 92
0 57 -30 85 -143 135 -57 25 -120 60 -142 78 -69 58 -98 143 -79 229 22 98 94
164 210 190 66 15 192 9 258 -13z m1254 1 c68 -24 130 -83 162 -155 15 -33 26
-73 24 -87 -2 -23 -10 -29 -43 -36 -139 -31 -421 -100 -427 -106 -12 -10 46
-123 78 -153 92 -85 237 -90 325 -11 38 34 40 35 59 18 19 -17 19 -19 2 -48
-27 -46 -102 -127 -143 -152 -61 -39 -143 -58 -228 -53 -141 8 -244 78 -304
206 -30 63 -32 74 -32 182 0 108 2 119 32 182 89 189 301 280 495 213z m820
15 c21 -6 44 -21 53 -33 33 -48 6 -174 -46 -211 -31 -21 -61 -20 -109 4 -58
30 -76 26 -100 -20 -18 -35 -20 -58 -20 -234 0 -191 0 -195 23 -211 12 -8 39
-18 60 -22 31 -5 37 -10 37 -29 l0 -24 -240 0 -240 0 0 24 c0 19 7 25 35 30
63 12 65 22 65 293 0 133 -4 253 -9 266 -6 16 -23 29 -45 37 -28 9 -36 17 -36
36 0 13 2 24 4 24 3 0 74 16 157 35 84 19 159 35 166 35 10 0 13 -23 13 -92
l1 -93 29 55 c41 80 98 129 160 139 3 1 22 -4 42 -9z m813 -19 c22 -10 54 -34
72 -54 55 -63 63 -111 63 -377 0 -260 0 -260 63 -275 20 -5 27 -13 27 -31 l0
-24 -215 0 -215 0 0 24 c0 18 7 26 27 31 53 13 53 11 53 257 0 248 -3 265 -56
307 -37 29 -110 28 -155 -2 l-34 -23 -3 -243 c-3 -269 0 -283 58 -296 23 -5
30 -12 30 -31 l0 -24 -220 0 -220 0 0 24 c0 18 7 25 32 30 59 12 58 4 58 302
0 271 0 273 -22 288 -12 9 -31 16 -41 16 -14 0 -18 6 -15 27 3 24 9 29 48 36
25 4 94 20 153 34 59 14 114 22 122 19 10 -4 15 -20 15 -51 l0 -46 33 24 c110
83 237 105 342 58z m-3055 -1181 c0 -99 1 -180 3 -180 1 0 29 14 61 30 46 23
72 30 119 30 91 0 135 -17 194 -76 82 -81 103 -188 63 -315 -42 -135 -151
-223 -310 -251 -70 -12 -177 0 -256 30 l-49 18 -5 392 c-5 418 -5 411 -52 412
-27 0 -23 39 5 45 94 22 195 43 210 44 16 1 17 -14 17 -179z m860 -234 c0
-235 4 -425 9 -439 6 -16 21 -28 40 -32 22 -5 31 -13 31 -26 0 -18 -9 -19
-165 -19 -152 0 -165 1 -165 18 0 11 13 23 35 31 l35 12 0 378 c0 398 0 394
-45 403 -12 2 -20 11 -20 23 0 17 15 22 105 41 58 12 113 22 123 23 16 1 17
-25 17 -413z m1630 230 l0 -184 70 36 c131 67 252 41 314 -68 l31 -55 5 -205
5 -205 33 -14 c19 -9 32 -22 32 -33 0 -17 -12 -18 -160 -18 -151 0 -160 1
-160 19 0 12 11 23 30 29 40 15 44 37 37 223 -7 180 -18 218 -72 243 -43 21
-71 20 -122 -4 l-43 -19 0 -209 c0 -215 3 -232 42 -232 23 0 45 -38 26 -45 -8
-3 -83 -4 -168 -3 -134 3 -155 5 -158 19 -2 11 6 19 25 24 55 13 53 1 53 387
0 215 -4 367 -10 378 -5 10 -23 23 -40 28 -35 13 -40 39 -7 47 59 14 204 43
220 44 16 1 17 -14 17 -183z m-1176 163 c33 -15 59 -71 51 -108 -10 -46 -50
-76 -100 -76 -78 0 -123 69 -90 138 25 52 83 71 139 46z m-2658 -69 c55 -28
74 -45 99 -84 26 -43 30 -59 30 -120 -1 -81 -21 -130 -77 -182 -69 -66 -189
-102 -298 -91 l-60 7 0 -144 c0 -157 0 -158 60 -173 25 -7 36 -16 38 -31 3
-22 3 -22 -192 -22 -186 0 -196 1 -196 19 0 14 12 23 43 33 l42 13 3 364 c2
261 -1 368 -9 377 -6 8 -26 18 -43 22 -22 6 -32 15 -34 31 l-4 23 265 -4 264
-3 69 -35z m494 -437 c0 -210 2 -231 20 -261 34 -56 112 -69 171 -29 l34 23 3
194 c3 189 2 196 -19 213 -12 9 -30 17 -40 17 -12 0 -19 7 -19 20 0 11 1 20 3
20 70 9 244 30 250 30 4 0 7 -120 7 -266 0 -164 4 -273 10 -285 6 -11 21 -19
36 -19 23 0 43 -24 30 -37 -3 -3 -50 -12 -103 -19 -54 -8 -108 -16 -119 -19
-18 -4 -22 1 -28 35 l-6 39 -47 -29 c-114 -73 -245 -65 -316 19 -39 47 -47 90
-47 261 0 196 -5 228 -36 236 -28 7 -45 26 -36 40 6 9 165 39 230 43 l22 1 0
-227z m2212 -55 l3 -283 35 -16 c19 -9 35 -23 35 -30 0 -11 -34 -15 -167 -17
-161 -2 -168 -2 -168 17 0 13 9 21 30 26 17 4 35 15 40 25 11 20 14 417 4 444
-3 8 -21 20 -40 26 -24 8 -34 17 -32 28 2 12 30 22 108 38 58 12 115 22 127
23 l23 1 2 -282z m646 259 c32 -17 32 -18 32 -92 0 -68 -2 -75 -20 -75 -13 0
-26 13 -39 39 -32 62 -74 91 -131 91 -58 0 -90 -26 -90 -72 0 -39 34 -71 103
-97 104 -38 156 -70 181 -109 32 -49 40 -91 26 -144 -28 -105 -116 -161 -254
-161 -82 -1 -174 22 -194 46 -5 7 -12 47 -14 90 -5 74 -4 77 17 77 17 0 29
-13 49 -54 34 -69 80 -100 148 -100 59 0 98 31 98 79 0 50 -24 71 -125 110
-74 29 -102 46 -134 80 -89 97 -60 233 63 292 46 21 61 24 151 20 70 -2 110
-8 133 -20z"/>
<path d="M5915 4550 c-53 -22 -85 -89 -85 -181 0 -65 6 -69 66 -50 16 6 62 20
103 31 l73 22 -5 37 c-7 57 -37 111 -71 132 -33 20 -50 22 -81 9z"/>
<path d="M7903 4544 c-47 -23 -73 -84 -73 -167 0 -37 3 -67 8 -67 4 0 58 12
120 27 126 30 125 30 97 115 -29 83 -92 122 -152 92z"/>
<path d="M6750 3192 l-35 -17 -3 -197 -2 -196 27 -20 c45 -32 86 -36 136 -14
55 24 82 62 103 143 33 130 -16 264 -113 305 -43 18 -71 18 -113 -4z"/>
<path d="M5060 3300 l0 -190 53 0 c70 0 134 33 159 81 41 80 32 181 -23 244
-33 37 -79 55 -146 55 l-43 0 0 -190z"/>
</g>
</svg>
